/* XPM */
static char *_de6a06fe8144aa185826f90e261c4a8[] = {
/* columns rows colors chars-per-pixel */
"42 42 147 2 ",
"   c #25030C",
".  c #2B060E",
"X  c #2B090F",
"o  c #32090F",
"O  c #2E0C11",
"+  c #330E12",
"@  c #3D0E12",
"#  c #361215",
"$  c #3D1113",
"%  c #3C1917",
"&  c #3B1618",
"*  c #351C19",
"=  c #3E1B19",
"-  c #3F2F20",
";  c #431314",
":  c #4A1515",
">  c #431817",
",  c #4E1F17",
"<  c #421D1B",
"1  c #4B1D1D",
"2  c #511818",
"3  c #46231E",
"4  c #48201D",
"5  c #532018",
"6  c #5D2A1B",
"7  c #632F1C",
"8  c #4D1E20",
"9  c #462620",
"0  c #4C2A22",
"q  c #532D25",
"w  c #582729",
"e  c #56282B",
"r  c #5C2B2E",
"t  c #563327",
"y  c #523D27",
"u  c #5A3629",
"i  c #5C392A",
"p  c #613C2B",
"a  c #783E22",
"s  c #663536",
"d  c #663738",
"f  c #6A3738",
"g  c #6F3D38",
"h  c #5C442D",
"j  c #5E4430",
"k  c #62452E",
"l  c #65492F",
"z  c #694B2F",
"x  c #634530",
"c  c #6D4333",
"v  c #664A31",
"b  c #6B4D33",
"n  c #6E4F38",
"m  c #704E35",
"M  c #76433A",
"N  c #7F4E3F",
"B  c #6F5035",
"V  c #6F5138",
"C  c #735236",
"Z  c #795536",
"A  c #755439",
"S  c #7A563A",
"D  c #7B593C",
"F  c #7C583C",
"G  c #7D593C",
"H  c #7D593E",
"J  c #7F5B3E",
"K  c #744444",
"L  c #735640",
"P  c #755843",
"I  c #7E5A40",
"U  c #7C555A",
"Y  c #7E585C",
"T  c #9F592E",
"R  c #805B3D",
"E  c #815B3F",
"W  c #855B3E",
"Q  c #835C3D",
"!  c #825C3F",
"~  c #855E3F",
"^  c #895F3E",
"/  c #87603F",
"(  c #8A613F",
")  c #835E40",
"_  c #845E40",
"`  c #885F40",
"'  c #945B44",
"]  c #86565C",
"[  c #82595E",
"{  c #876042",
"}  c #8B6243",
"|  c #8C6343",
" . c #886244",
".. c #8C6345",
"X. c #8E6445",
"o. c #8D6446",
"O. c #8C6448",
"+. c #8F6848",
"@. c #916545",
"#. c #916645",
"$. c #936646",
"%. c #946647",
"&. c #956846",
"*. c #986946",
"=. c #916748",
"-. c #936A49",
";. c #946849",
":. c #956A4C",
">. c #996B4A",
",. c #BC7B58",
"<. c #865C61",
"1. c #885B60",
"2. c #8E6266",
"3. c #8E6468",
"4. c #93686C",
"5. c #9C7375",
"6. c #A67A7D",
"7. c #A47E81",
"8. c #AC8285",
"9. c #AB8588",
"0. c #AF8A8C",
"q. c #B48184",
"w. c #B18B8D",
"e. c #BB8C8F",
"r. c #B68E90",
"t. c #BB8E90",
"y. c #BC9295",
"u. c #BE9698",
"i. c #C18E90",
"p. c #C19396",
"a. c #C39799",
"s. c #C59B9C",
"d. c #C69FA1",
"f. c #C7A1A2",
"g. c #CBA5A5",
"h. c #DCA7A7",
"j. c #D4ADAD",
"k. c #DDADAE",
"l. c #D7B1B1",
"z. c #DCB3B3",
"x. c #E2B6B7",
"c. c #E4BDBC",
"v. c #ECBEBE",
"b. c #F2CCCA",
"n. c #FDD1CF",
"m. c #FFD7D5",
"M. c #FFD8D6",
/* pixels */
"S x J ) { x C A n _ } A } } n A ! _ J S S { J n _ ! C b l k Z E J v Z L P v b v v h ",
"_ S V v n ! n  .J A ~ S } ..A h ~ } } b ~ S J C ! } b J C v D m C B v C V b v x C V ",
"~ ) n J _ } b _ C } } J _ ) J ) v _ J A } ! _ S b n A n k z C b E G C C v k b l b A ",
"C A C } } o.E J n ..W ) =.=.=.#.A n A n ~ } ..} v ~ _ _ v v A n v v G A l y h b ~ C ",
"V o.A _ ! { } } v S } #.#.;.:.o.b %.#.#.m | #.n v ~ ` J } J J S C v S _ E A D V C J ",
"A o.{ { =.;.} J } & @ @ @ + + @ @ @ @ @ @ @ @ @ @ @ @ @ @ @ @ @ 3 J C ! ~ S E ! Z S ",
"S o.+.) -.;.) } =.$ ; @ ; ; ; : ; @ ; : ; 2 ; ; ; : $ $ ; ; : @ < S } C V A G G J ! ",
") S ) V J ) ) _ ..+ o o @ + + @ ; @ @ @ o + @ $ @ @ $ $ @ $ ; ; 4 S G b C n Z v J J ",
"o.n C _ )  .D { #.+ . . . X O O + X + + + X + O O + O + O . . . = o.} G G ! C G b b ",
"A h C _ J I J C n O . . . p Z Z #.S l W E A } ~ v } ~ ` 9 . . . = #.#.E E } ~ S C S ",
"} v S b S =. .o._ +   . . u E Z ( C G #.) G ;.l } ~ S | q . .   < } } J E ~ Z S A b ",
"D ! / _ ) ) #.#.} +   . . t D J ) v } o.&.} v E &.#.;.J 0 . .   < #.o.J ~ S E Z ! l ",
"! J D ~ #. .S _ I O . . . u J b o.S S ` W J v &.#.&.;.J q . .   =  .&.G S } A z l Z ",
"| A { C _ } } } o.+ . . . x #.J n * $ @ + @ @ 1 c #.;.C q . .   = C ) G Z A S k b b ",
"J ! #.{ G ~ ;.{ J # . . . x  .i > r 6.7.@ @ y.5.w > c J t . . . < J A G v ! ~ A l b ",
"x ! S C A ! o.;.=.+ o . . $ ; 8 5.b.s.3.@ @ y.f.y.[ ; ; # . . . # Z h Z S | ~ G h b ",
"A k v } } S ~ ;. .X o .   f s.z.e.e.e.1.@ @ q.i.x.w.5.U ;   . o < A Z E | G ~ V b v ",
"} C b { J ! o.:.o.+ . .   d w.s.b.e.e.[ @ @ 7.w.w.g.b.w.@   . . < | ( o.~ Z E S C n ",
"J J C ! J ) o.O.} #   . ; N w.w.n.r.r.[ @ @ c.w.w.w.w.b.7 + . . < ( #.#.! Z ! J o.J ",
"C S v v S _ _ =.=.# . . 6 ,.M.j.f.f.b.y.@ @ 9.j.c.y.y.y.T $ . . = ! #.#.#.| ` ~ ! } ",
"} o._ S o.-.~ #.;.# . . + M s.s.j.x.s.3.@ @ 7.w.w.w.z.M.6 $ . . < o._ #.#.=.S J z z ",
"{ o.! )  .=.o.} _ # . .   K M.M.c.c.c.8.@ @ c.M.u.0.0.w.@   . . < } G E V S Z J ! A ",
"o.o.| o.o.#.o.) V X . .   K M.M.c.c.c.7.@ @ l.f.f.f.f.b.@   . . < >.G G ;.;.( J ! ~ ",
"o.J C ) ) S h j - O . .   d f.f.f.m.w.Y @ @ c.m.m.m.m.m.@   . . < #.} E o.#.#.} E } ",
"A  ._ b v b S E E O . .   K z.w.w.w.z.<.@ @ 0.f.l.f.c.f.@ . . . % ~ _ o.#.#.~ #.J _ ",
"k A  .E _ { A V J + . . , ' y.y.y.y.y.2.@ @ c.x.a.a.a.a.a ; .   = #.G *.*.#.>._ G A ",
"b k v A } J V C E + . . 6 ,.j.f.f.f.f.t.@ @ 7.w.w.w.w.w.T ; . . < >...>.&.*.~ ~ ~ A ",
"b n n A _ A C S C + . . + g t.m.x.d.d.3.@ @ w.p.z.0.0.0.5 . . . < &.>.~ %.#.G } ! { ",
"~ E J ! o.o.o.E _ # . .   d w.w.w.z.t.[ @ @ c.x.x.x.x.x.@   .   < #.^ Z ^ | } ~ G { ",
"J ! ( ~ | } ! } #.# . . . d 0.u.n.M.M.y.@ @ g.v.k.k.z.h.@   . . # ~ &.G G | ~ / D } ",
"v C C Z ( J ! #. .#   .   s p.2.; e p.2.@ @ U 4.1 1 <.] @   . o % Z ~ A E E ! C A E ",
"Z G J b b G } o.} #   .   $ ; 1 m q > ; $ $ ; > u u ; ; @   . o % z h E ! b l v b n ",
"} ! B A v } } }  .# . . . i | ;.;.=.} b b n x ..#.&.%.~ = . . . # l Z C b l ~ k C G ",
"! G v h l ~ E ! ~ + . . . k } ;.>.-.S J #.;.>.E &.#.| l q . . . = A { n C C Z b A b ",
"A k l C b ~ E G G O o . . k #.#.&.;.m ( #.o.#.#.} | #.b 0 . . . < S b b Z Z b v Z l ",
"A C S A v k k v n + . . . p | ~ o.o.C o.o.o.o.&.D ~ C S 3 . . . = C C S ~ G C E k S ",
"! J J A ! E v b G ~ Z ~ n n b E J o.b E E o.#.} G C ~ } Z E E E E n m C v v v n v D ",
"J D D C { ` B l Z E v b l ~ J C v v l S _ S ~ D ~ J Z G m ~ { G A v J J Z v S v D D ",
"A D b A ! ~ J k S C C B C ! ! J G G C ! } J J S ! A G ! A Z D C v n S ! S C D b C S ",
"b A C C J D C v C C Z b C k S Z C b G C ! _ G G J A E J l k z b G J n v ! S S J v v ",
"v b J v C A D v b G S b B k C A A v b C Z J ~ E S ! S l A C A J C Z C S h n J A l J ",
"h k v k A C C A k G A C C n B Z m l Z A S J G J C v k C J ! S Z b b b C V v v C b G "
};
