/* XPM */
static char *fc78dd83f3ea44b9b12988a3d2727307[] = {
/* columns rows colors chars-per-pixel */
"42 42 141 2 ",
"   c #05160B",
".  c #07180B",
"X  c #091A0C",
"o  c #111C0F",
"O  c #141E11",
"+  c #0F220E",
"@  c #11210F",
"#  c #142411",
"$  c #1A2413",
"%  c #172A12",
"&  c #1A2913",
"*  c #1E341D",
"=  c #232716",
"-  c #222916",
";  c #252518",
":  c #262918",
">  c #2A2C1A",
",  c #312E1C",
"<  c #223415",
"1  c #21341E",
"2  c #35301F",
"3  c #263F27",
"4  c #263F29",
"5  c #373120",
"6  c #3E3622",
"7  c #3F3824",
"8  c #403725",
"9  c #433926",
"0  c #4B3B27",
"q  c #4E3D28",
"w  c #523D27",
"e  c #2D4218",
"r  c #31481A",
"t  c #29432D",
"y  c #2E4930",
"u  c #344F36",
"i  c #355136",
"p  c #385736",
"a  c #3E5E37",
"s  c #40581E",
"d  c #4F402B",
"f  c #55412A",
"g  c #5C442D",
"h  c #5E4630",
"j  c #61462E",
"k  c #65492F",
"l  c #694B2F",
"z  c #614730",
"x  c #664A31",
"c  c #6B4D33",
"v  c #6E4F38",
"b  c #704F35",
"n  c #6F5035",
"m  c #6F5138",
"M  c #735236",
"N  c #795536",
"B  c #755439",
"V  c #7A563A",
"C  c #7D593B",
"Z  c #7B593C",
"A  c #7C583C",
"S  c #7D593E",
"D  c #7E5A3E",
"F  c #5D7929",
"G  c #48683D",
"H  c #3E5E43",
"J  c #3F6E58",
"K  c #735640",
"L  c #755843",
"P  c #7E5A40",
"I  c #577941",
"U  c #45735C",
"Y  c #4A745A",
"T  c #4C785F",
"R  c #467860",
"E  c #4B7C64",
"W  c #805B3D",
"Q  c #815B3F",
"!  c #835C3D",
"~  c #815C3F",
"^  c #855D3F",
"/  c #855E3F",
"(  c #895F3E",
")  c #87603F",
"_  c #8A613F",
"`  c #835E40",
"'  c #845E40",
"]  c #885F40",
"[  c #876042",
"{  c #8B6243",
"}  c #8C6343",
"|  c #886244",
" . c #8E6445",
".. c #8D6446",
"X. c #8C6448",
"o. c #8F6848",
"O. c #926545",
"+. c #916645",
"@. c #936646",
"#. c #956846",
"$. c #986946",
"%. c #916748",
"&. c #946949",
"*. c #956949",
"=. c #996B4A",
"-. c #759E54",
";. c #4F8067",
":. c #568065",
">. c #53836A",
",. c #5A8D70",
"<. c #5B9176",
"1. c #609275",
"2. c #639A7E",
"3. c #669C81",
"4. c #64A182",
"5. c #6AA386",
"6. c #6FA789",
"7. c #6FAA8C",
"8. c #72AC8E",
"9. c #6FB08E",
"0. c #74AF91",
"q. c #75B393",
"w. c #79B595",
"e. c #79B997",
"r. c #7CBC9A",
"t. c #80C19D",
"y. c #83C3A1",
"u. c #85CCA7",
"i. c #8BCEAA",
"p. c #8DD2AD",
"a. c #90D3AF",
"s. c #8FD6B1",
"d. c #91D6B1",
"f. c #94DBB5",
"g. c #9AE1BB",
"h. c #A5EEC6",
"j. c #A6F1C9",
"k. c #AAF7CE",
"l. c #AAFCCF",
"z. c #ADFDD1",
"x. c #B1FED4",
/* pixels */
"V z D ` [ z M B v ' { B { { v B ~ ' D V V [ D v ' ~ M c k j N Q D x N K L x c x x f ",
"' V m x v ~ v | D B / V { ..B g / { { c / V D M ~ { c D M x Z b M n x M m c x z M m ",
"/ ` v D ' { c ' M { { D ' ` D ` x ' D B { ~ ' V c v B v j l M c Q C M M x j c k c B ",
"M B M { { ..Q D v ../ ` %.%.%.+.B v B v / { ..{ x / ' ' x x B v x x C B k w g c / M ",
"m ..B ' ~ [ { { x V { +.+.&.&...c +.+.+.b } +.v x / ] D { D C V M x V ' Q B Z m M D ",
"B ..[ [ %.&.{ D { $ # # # X X # # # # # # # # # # # # # # # # # > D M ~ / V Q ~ N V ",
"V ..o.` &.&.` { &.$ # # # & # & & # & & & < # # # & # # & $ & # > V { M m B C C D ~ ",
"` V ` m D ` ` ' ..O X X # @ @ # $ # # # X @ # # @ @ # # # # & & > V C c M v N x D D ",
"..v M ' ` | Z [ +.O . . . X o O O X O O O X O O X O O O X . . . : ..{ C C ~ M C c c ",
"B g M ' D P D M v o . . . f N N +.V k / Q B } / x { / ] 2 . . . : +.+.Q Q { / V M V ",
"{ x V c V %.| ..' O   . . q Q N _ M C +.` C &.k { / V } 8 . .   : { { D Q / N V B c ",
"Z ~ ) ' ` ` +.+.{ #   . . 0 Z D ` x { ..#.{ x Q #.#.&.D 5 . .   > +...D / V Q N ~ k ",
"~ C Z / +.| V ' P O . . . q D c ..V V [ ~ Z x #.+.#.&.D 9 . .   : | #.C V { B l k N ",
"} B [ M ' { { { ..O . . . h +.D v ; # # @ # # > z +.&.M 9 . .   : M ` C N B V j c c ",
"D ~ +.[ C / &.[ D # . . . g | d & t 2.3.# # w.,.3 - x D 9 . .   : D B C x ~ / B k c ",
"z ~ V M B ~ ..&.%.O X . . $ & 1 1.j.r.;.# # q.y.w.Y % & # . . . $ N g N V } / C g c ",
"B j x { { V / &.| X X .   i r.d.7.7.7.R # # 4.9.f.7.<.U #   . X > B N Q } C / m c x ",
"{ M c [ D ~ ..=...O . .   u 8.r.h.7.7.U # # 3.8.8.y.j.7.#   . . : } _ ../ N Q V M v ",
"D D M ~ D ` ..X.{ #     % G 7.7.k.8.8.U # # g.7.7.7.7.j.r @ . . > _ +.+.~ N ~ D X.D ",
"M V x x V ' ' %.%.#     e -.x.p.y.y.h.0.# # 5.u.g.q.q.q.F % . . = ~ +.+.+.} ] / ~ { ",
"{ ..' V X.&./ +.&.# . . + a r.r.i.f.r.;.# # 2.7.7.7.d.x.e @ . X > ..' +.#.%.V D l l ",
"[ ..~ ` | %...{ ' # . .   H x.x.g.g.g.5.# # g.x.w.7.7.7.#   . X > { C Q m V N D ~ B ",
"....} ....+.+.' M X . .   H x.x.g.g.g.3.# # a.y.y.y.y.h.#   . . > =.C C &.#.} C ~ / ",
"..D M ` ` V g h 8 o . .   u y.y.y.x.7.U # # g.z.z.l.z.x.#   . X > +.{ Q ..+.+.{ Q { ",
"B | ' c x c V Q Q o . .   H d.8.8.8.d.R # # 6.y.a.y.g.y.@   . . = / ' ..+.+./ +.C ' ",
"j B | Q ' [ B m D # . . < I q.q.q.q.q.E # # g.f.e.e.e.e.s & .   = +.C $.$.+.=.' C B ",
"c j x B { D m M Q O . . e -.p.y.y.y.y.0.# # 2.7.7.7.7.8.F % .   > =...=.#.$./ / / B ",
"c v v B ' B M V M O . . @ p 9.x.f.t.t.>.# # 7.w.s.7.7.7.< . . . > #.=./ +.+.C { ~ [ ",
"/ Q C ~ ..X...Q ' # .     u 7.7.7.d.7.U # # g.f.f.f.f.f.#   .   : +.( N ( } { / C [ ",
"D ~ _ / } { ~ { +.$ .     u 7.w.k.x.x.0.# # y.g.p.p.p.u.#   . . $ / #.C C } / ) Z { ",
"x M M N _ D ~ #.| $       y w.:.# 4 q.E # # J >.* * T U #   . X = N / B Q Q ~ M B Q ",
"N C C c c C { ..{ #   .   # & > c 7 & $ $ $ $ - 0 q - & @   . X = l g Q ~ c k x c v ",
"{ ~ n B x { { { | $ . . . f } &.&.%.{ c c v z ..+.#.+./ > . . . $ k N M c k / j M C ",
"~ C x g k / Q ~ / O . . . g { &.=.&.V D +.&.=.Q #.+.} k 6   . . = B [ v M M N c B c ",
"B j k M c / Q C C o X . . g +.+.#.&.b _ +...+.+.{ } +.c 6 . . . : V c c D N c x N k ",
"B M V B x j j x v O . . . f } / ....M ........#.Z / M V ,   . . = M M V / C M Q j N ",
"~ D D B ~ Q x c C / N / v v c Q C ..c Q Q ..+.} C M / { N Q Q Q Q v b M x x x v x Z ",
"D Z Z M [ ] n k N Q x c k / D M x x k V ' V / Z / D N C b / [ C B x D D N x V x Z Z ",
"B Z c B ~ / D j V M M n M ~ ~ C C C M ~ { D D V ~ B C ~ B N Z M x v V ~ V M Z c M V ",
"c B M M D Z M x M M N c M j V N M c C M ~ ' C C D B Q D k j l v C D v x ~ V V C x x ",
"x c D x M B Z x c D V c n j M B B x c M N C / Q V ~ D k B M B D M N M V g v D B k D ",
"g j x j B M M B j C B M M v n N b k N B V D C D M x j M D ~ V N c c c M m k x M v D "
};
