/* XPM */
static char *f9f8d47903cd483fba5b9a9a15e4a23e[] = {
/* columns rows colors chars-per-pixel */
"42 42 62 1 ",
"  c #3F2F20",
". c #4C3827",
"X c #523D27",
"o c #533D29",
"O c #57402C",
"+ c #5C432D",
"@ c #5D4430",
"# c #61462E",
"$ c #65492F",
"% c #694B2F",
"& c #614731",
"* c #654A31",
"= c #6B4D33",
"- c #6F4F39",
"; c #704F34",
": c #6F5035",
"> c #6F5138",
", c #735236",
"< c #795537",
"1 c #755439",
"2 c #7A563A",
"3 c #7D593C",
"4 c #735640",
"5 c #755843",
"6 c #7E5A40",
"7 c #825A3A",
"8 c #825B3B",
"9 c #815B3F",
"0 c #855B3E",
"q c #825C3F",
"w c #845C3C",
"e c #855E3F",
"r c #885E3D",
"t c #87603F",
"y c #8A603F",
"u c #805C40",
"i c #835E40",
"p c #845E40",
"a c #885F40",
"s c #856043",
"d c #866042",
"f c #8A6243",
"g c #8D6243",
"h c #886244",
"j c #8C6344",
"k c #8F6344",
"l c #8D6446",
"z c #8E6648",
"x c #8F6848",
"c c #906443",
"v c #936545",
"b c #916646",
"n c #936746",
"m c #946647",
"M c #956947",
"N c #986947",
"B c #906748",
"V c #936A49",
"C c #946848",
"Z c #956A4C",
"A c #986948",
"S c #9A6B4A",
/* pixels */
"2&3id&,1-pf1ff-1qp322d3-pq,=$#<93*<45*=**O",
"p2>*-q-h31e2fj1+eff=e23,qf=3,*2,,:*,>=*&,>",
"ei-3pf=p,ff3pi3i*p31fqp2=-1-#%,=93,,*#=$=1",
",1,ffl93-j0iBBBb1-1-efjf*epp**1-**31$X+=e,",
">l1pqdff*2fbbCZl=mbb;gb-*ea2f332,*2p913>,3",
"1lddBCf3f3Cfblq-qMlf2*<,77gqf2qq33,qe27q<2",
"2lxiVCifBipfcCCp2beg2r;=2,222-lpp2f,>1333q",
"i2i>3iipjC222922=A77=e3113=gjeppq23=,-<*33",
"l-,pih2db=-3<=qfa,b$f=;e<eefbpeaqlf33q,3==",
"1+,p363,--*,-e<<c<$e71ge*gea3hh,3bb79fe2,2",
"f*2=2Bhlp31=297<y,3bq3C$ge2gb3ppfff39e<21-",
"3qtpiibbf122=233i*flMf*9MbC3pi99hbl3e29<q*",
"q32ebh2p62pbh33=l22MAg-MbMC3ChCbhhM32f1%$<",
"g1d,pfffl-pqjbb3,*&-1*MlAbC,AAACe,i3<12#==",
"3qbd3eCd3-qlfjVijbbC-&MCCBm3AAAgy313*7e1$=",
"&q2,1qlCB1CCBBhphlbVl.3gbl2iblgq3<+<2ge3+=",
"1#*ff2eCh*mlb9CdBBlh&p1>AA1lhag2p1<9g3e>=*",
"h,:d3qlAlobgl3VCVCl*fbVi1--6hf2gygyje<92,-",
"33,q3ilzf2&jjjlAbC*jfbbMAq3y3-9bjybb7<q3h3",
",2**2ppBBB2O@&*CBC*CgCMbCb1MzVm7eebbbgaeqf",
"flp2hVebCB@qBli&p*9CpCCbMb1lCbfjplpbbB22%%",
"dlqihBlfp-*lzbCd@3*3bAlMAb2jmCpqbf39>2<271",
"llgllbli,&mllVbhalb*qfjmAb,mbjbCCA33CCg3qe",
"l3,ii2+@ qlhhBdjbbb;91Abmb,gMb9AMbf7jccf9f",
"1hp=*=299+pdihV-pbA-fg22,-+;1*931eplbceb3p",
"#1h9pd1>3&+21&>ebb2fMAmfj+geAMbb7b3NNcAp31",
"=#*1f3>,931+&22bAB,mAC9Ag*mjjANrcAgAMNeee1",
"=--1p1,2,p39fb3jA9eAAMegg*MbMgyjfMAemc3fqd",
"e93qjhl9pl2jfgb32-2bAAAmM=cNCfbb3gp<rgfe3d",
"2qyegfqfbCpetybg2bf2gClA113Mqfer3eM33get3f",
"*,,<y3qbhC2fAlf9lbb2MNCb1c<3eb<g7<e177q,19",
"<33==3fjfVj2i;9fAmM2AAj2ggbe*ecjf%+7e=$*=-",
"fq:1*fffhVf=qegCCBf==-&jbMme2<=**$<,=$e#,3",
"q3*+$e9qefg$3cfCAV23bCA9Mcg*cgge,<d-,,<=1=",
"1#$,=e733$$3*bbbMC;ycjbcfgb=cjyqe2==2<=*<$",
"1,21*##*-q<7=<gelj,llljM3e,2<egfe,,2e3,7#<",
"q331q9*=3e<e--=93j=79lbg3,ef27799-;,***-*3",
"332,da:$<7*=$e3,**$2p2e3e2<3;ed31*33<*2*33",
"12=1qe2#2,,:,qq333,qf332q13q1<3,*-2q2,3=,2",
"=1,,33,*,,<=,#2<,=3,qp333193$#%-33-*q223**",
"*=3*,13*=32=>#,11*=,<3e92q2$1,13,<,2+-31$3",
"+#*#1,,1#31,,-:<;$<12333,*#,3q2<===,>**,-3"
};
