/* XPM */
static char *e5240ac1d00c44a7b01969d349ba4ac9o1rKw9SHFdI2kGQJ[] = {
/* columns rows colors chars-per-pixel */
"49 32 227 2 ",
"   c None",
".  c black",
"X  c #010101",
"o  c #020202",
"O  c #020303",
"+  c #040404",
"@  c #040607",
"#  c gray3",
"$  c #080B0C",
"%  c #090C0D",
"&  c #0A0D0E",
"*  c #0C1011",
"=  c #0D1213",
"-  c #0D1314",
";  c #0E1314",
":  c #0F1416",
">  c #101010",
",  c #101617",
"<  c #151515",
"1  c #111619",
"2  c #121819",
"3  c #13191A",
"4  c #13191B",
"5  c #141B1C",
"6  c #141B1D",
"7  c #141C1D",
"8  c #141C1E",
"9  c #151D1F",
"0  c #1B1D1D",
"q  c gray12",
"w  c #182022",
"e  c #182023",
"r  c #182123",
"t  c #192225",
"y  c #192325",
"u  c #1A2224",
"i  c #1A2426",
"p  c #1C2628",
"a  c #1D272A",
"s  c #1E272A",
"d  c #1E292B",
"f  c #1E2A2D",
"g  c #1F2A2D",
"h  c #282828",
"j  c #2D2D2D",
"k  c gray18",
"l  c #2F2F2F",
"z  c #222E32",
"x  c #233033",
"c  c #263437",
"v  c #28363A",
"b  c #28373B",
"n  c #29373B",
"m  c gray24",
"M  c #3F3F3F",
"N  c #2C3C41",
"B  c #2E3E42",
"V  c #374A50",
"C  c #3B5056",
"Z  c #3D5259",
"A  c #494949",
"S  c gray30",
"D  c gray31",
"F  c #41585F",
"G  c #585858",
"H  c #5A5A5A",
"J  c #425960",
"K  c #465F67",
"L  c #4B646C",
"P  c #4B656C",
"I  c #4C676F",
"U  c #4E6A72",
"Y  c #516D75",
"T  c #516D76",
"R  c #526E77",
"E  c #55737C",
"W  c #58777F",
"Q  c #606060",
"!  c gray39",
"~  c #606A6E",
"^  c DimGray",
"/  c #6C6C6C",
"(  c #767676",
")  c gray47",
"_  c gray48",
"`  c #7E7E7E",
"'  c gray50",
"]  c #597881",
"[  c #5B7C85",
"{  c #5C7C85",
"}  c #5E8089",
"|  c #6E8185",
" . c #638690",
".. c #648791",
"X. c #658992",
"o. c #668993",
"O. c #698D98",
"+. c #698E98",
"@. c #6D939E",
"#. c #6D949E",
"$. c #79979F",
"%. c #7299A5",
"&. c #739BA6",
"*. c #759EAA",
"=. c #79A4AF",
"-. c #7AA4B0",
";. c #7AA5B1",
":. c #7BA5B1",
">. c #7AA6B2",
",. c #7BA6B2",
"<. c #7EABB7",
"1. c #808080",
"2. c #848484",
"3. c gray53",
"4. c #8D8D8D",
"5. c #909090",
"6. c gray57",
"7. c #9F9F9F",
"8. c #81AEBB",
"9. c #85B3BF",
"0. c #A2A2A2",
"q. c #B1B1B1",
"w. c #B6B6B6",
"e. c gray74",
"r. c gray75",
"t. c #8ABBC9",
"y. c #8CBECC",
"u. c #8DBECC",
"i. c #8DBFCD",
"p. c #8FC1CF",
"a. c #91C4D3",
"s. c #92C5D4",
"d. c #92C6D5",
"f. c #93C6D5",
"g. c #93C7D5",
"h. c #95C9D8",
"j. c #96CBDA",
"k. c #97CBDB",
"l. c #97CCDB",
"z. c #97CDDC",
"x. c #97CEDC",
"c. c #99CFDE",
"v. c #B6C6CA",
"b. c #9CD3E2",
"n. c #9CD3E3",
"m. c #9DD4E4",
"M. c #9DD5E4",
"N. c #9ED6E5",
"B. c #9ED6E6",
"V. c #A0D9E8",
"C. c #A1DAE9",
"Z. c #A1DAEA",
"A. c #A2DBEB",
"S. c #A5DCEC",
"D. c #A7DDEC",
"F. c #A8DDEC",
"G. c #A9DEED",
"H. c #ABDFED",
"J. c #ACDFED",
"K. c #ADDFED",
"L. c #AFE0ED",
"P. c #ADE0EE",
"I. c #AFE0EE",
"U. c #B0E0EE",
"Y. c #B0E1EE",
"T. c #B3E2EF",
"R. c #B4E2EF",
"E. c #B5E2EF",
"W. c #B5E3EF",
"Q. c #B7E2EF",
"!. c #B9E4F0",
"~. c #BBE5F1",
"^. c #BFE6F1",
"/. c #CACACA",
"(. c #CECECE",
"). c gray83",
"_. c #DFDFDF",
"`. c #C4E8F2",
"'. c #C5E9F2",
"]. c #C4E8F3",
"[. c #C5E8F3",
"{. c #C6E8F3",
"}. c #C6E9F3",
"|. c #C9EAF3",
" X c #CBEBF4",
".X c #CDECF4",
"XX c #CEECF4",
"oX c #CEECF5",
"OX c #D0ECF5",
"+X c #D1EDF5",
"@X c #D6EFF6",
"#X c #D9F0F7",
"$X c #DAF1F7",
"%X c #DBF1F7",
"&X c #DCF1F7",
"*X c #DDF2F7",
"=X c #DDF2F8",
"-X c #DEF2F8",
";X c gray88",
":X c gray92",
">X c #EFEFEF",
",X c #E1F2F8",
"<X c #E4F4F9",
"1X c #E4F6FA",
"2X c #E8F6FA",
"3X c #EBF7FB",
"4X c #ECF8FB",
"5X c #EDF8FB",
"6X c #EFF8FB",
"7X c gray95",
"8X c #F3F3F3",
"9X c #F4F5F6",
"0X c #F2FAFC",
"qX c #F3FAFD",
"wX c #F3FBFD",
"eX c #F4FBFD",
"rX c #F7FBFD",
"tX c #F7FCFD",
"yX c #F8FCFD",
"uX c #F9FCFE",
"iX c #F9FDFE",
"pX c #FAFDFE",
"aX c #FBFDFE",
"sX c #FCFEFE",
"dX c #FDFEFE",
"fX c #FEFEFF",
"gX c white",
/* pixels */
"                                                                                                  ",
"                                                                                                  ",
"                                  . # q e e 9 + . .                                               ",
"                              . m w.8XgXtX-XI.C.<...n .                                           ",
"                            . 2.gXgXgXgXgXgXgX+XA.A.A.&.,                                         ",
"                          . 4.gXgXgXgXgXgXgXgXgXoXA.A.A.&..                                       ",
"                        . S gXgXgXgXgXgXgXgXgXgXgXH.A.A.f.. . . . . .                             ",
"                        . ).gXgXgXgXgXgXgXgXgXgXgX|.C.z.P . n E +.+.T f . .                       ",
"                        j gXgXgXgXgXgXgXgXgXgXgXgX$Xu.t s >.C.A.C.A.A.A.>.5 .                     ",
"                      . _ gXgXgXgXgXgXgXgXgXgXgXgXv.% ~ $XrXgXgX0X$XI.A.C.c.B .                   ",
"                      . 6.gXgXgXgXgXgXgXgXgXgXgX_.> ' gXgXgXgXgXgXgXgX`.A.A.n.s .                 ",
"                  . . . . . m 0.gXgXgXgXgXgXgXgXh ( gXgXgXgXgXgXgXgXgXpXR.A.A.,..                 ",
"              . 0 _ e._._.(.^ + ' gXgXgXgXgXgXe.< 8XgXgXgXgXgXgXgXgXgXgX3XA.A.A.n                 ",
"          . 5 $.pXgXgXgXgXgXgX/.& r.gXgXgXgXgX2.S gXgXgXgXgXgXgXgXgXgXgXgX~.A.A.I .               ",
"        . d h.4XgXgXgXgXgXgXgXgX/ ! gXgXgXgXgX3.A gXgXgXgXgXgXgXgXgXgXgXgXoXA.A.T .               ",
"      . 9 l.T.gXgXgXgXgXgXgXgXgX5.G gXgXgXgXgX;XG gXgXgXgXgXgXgXgXgXgXgXgX&XA.C.K . . .           ",
"      . u.A.^.gXgXgXgXgXgXgXgXgXj 4.gXgXgXgXgXgXgXgXgXgXgXgXgXgXgXgXgXgXgX$XA.A.9  .8.B .         ",
"    . Z A.C.{.gXgXgXgXgXgXgXgX>XD :XgXgXgXgXgXgXgXgXgXgXgXgXgXgXgXgXgXgXgX`.C.{ 5 C.A.A.P .       ",
"    . >.A.A.!.gXgXgXgXgXgXgXgXgXgXgXgXgXgXgXgXgXgXgXgXgXgXgXgXgXgXgXgXgXgXK.t.$ #.A.A.A.C.z       ",
"    % A.A.A.D.pXgXgXgXgXgXgXgXgXgXgXgXgXgXgXgXgXgXgXgXgXgXgXgXgXgX>XQ 9X X*.- T A.A.A.A.A.{ .     ",
"    t C.A.A.A. XgXgXgXgXgXgXgXgXgXgXgXgXgXgXgXgXgXgXgXgXgXgXgXgXgXgXj t p . | A.A.A.A.A.A.X..     ",
"    t A.A.A.A.A.2XgXgXgXgXgXgXgXgXgX1XgXgXgXgXgXgXgXgXgXgX0XgXgXgXgXgXq.7.>X}.A.A.A.A.A.A.] .     ",
"    5 A.A.A.A.A.H.3XgXgXgXgXgXgXgX`.H.pXgXgXgXgXgXgXgXgXpX~.gXgXgXgXgXgXgXpXI.A.A.A.A.A.A.x       ",
"    . k.A.A.A.A.A.A. X0XgXgXgX,XK.C.C. XgXgXgXgXgXgXgXpXR.C.E.rXgXgXgXgXgX`.A.A.A.A.A.A.@..       ",
"    . ] A.A.A.A.A.A.A.A.T.I.H.A.A.A.A.A.I.%X5XrX0X2XoXD.C.A.A.D.`.-X1X@XR.A.A.A.A.A.A.f.5         ",
"      5 z.A.A.A.A.A.A.A.A.C.A.A.A.A.A.A.A.A.A.A.A.A.A.A.A.A.A.A.A.A.C.A.A.A.A.A.A.A.B.c .         ",
"      . C C.A.A.A.A.A.A.A.A.A.A.A.A.A.A.A.A.A.A.A.A.A.B.f.C.A.A.A.A.A.A.A.A.A.A.A.l.f .           ",
"        . V f.A.A.A.A.A.A.A.A.A.X.t p.A.A.A.A.A.A.A.A.J = p.A.A.A.A.A.A.A.A.A.A.>.2 .             ",
"          . - J >.n.C.C.A.f.X.n . . 5 &.C.C.A.C.f.} s . . = U >.B.A.A.A.n.9.] n .                 ",
"              . . O 4 9 : . .         . $ 9 9 1 . .         . . . : 2 : . . .                     ",
"                                                                                                  ",
"                                                                                                  "
};
