/* XPM */
static char *_22b6ccc72244180bccaf391e48841f1[] = {
/* columns rows colors chars-per-pixel */
"42 42 171 2 ",
"   c #3F2F20",
".  c #523D27",
"X  c #5C432D",
"o  c #5E4430",
"O  c #61462E",
"+  c #65492F",
"@  c #6A4B2F",
"#  c #614731",
"$  c #654A31",
"%  c #6B4D33",
"&  c #6F4F39",
"*  c #704F34",
"=  c #6E5035",
"-  c #6F5138",
";  c #735236",
":  c #795536",
">  c #755439",
",  c #7A563A",
"<  c #77583F",
"1  c #7D593C",
"2  c #6B5444",
"3  c #735741",
"4  c #755843",
"5  c #7C5C44",
"6  c #7A5F48",
"7  c #7B6845",
"8  c #7E6453",
"9  c #835C3E",
"0  c #895F3E",
"q  c #87603F",
"w  c #8A613F",
"e  c #877E3F",
"r  c #845E41",
"t  c #885F40",
"y  c #866042",
"u  c #8B6343",
"i  c #84644F",
"p  c #8F6748",
"a  c #8C684D",
"s  c #926645",
"d  c #956846",
"f  c #986946",
"g  c #916748",
"h  c #956949",
"j  c #996B49",
"k  c #857742",
"l  c #98704A",
"z  c #866A56",
"x  c #8B6C53",
"c  c #8B6E5B",
"v  c #946E52",
"b  c #8F7057",
"n  c #887559",
"m  c #8B715E",
"M  c #947156",
"N  c #987052",
"B  c #94745C",
"V  c #99755B",
"C  c #9B7C5A",
"Z  c #A27C5F",
"A  c #8C7463",
"S  c #8E7668",
"D  c #8F796E",
"F  c #937661",
"G  c #947963",
"H  c #9D7B61",
"J  c #947969",
"K  c #9E7F69",
"L  c #967E73",
"P  c #987E73",
"I  c #A37E62",
"U  c #8F824F",
"Y  c #93884B",
"T  c #9B8D4D",
"R  c #948A54",
"E  c #988C55",
"W  c #8F9459",
"Q  c #96985C",
"!  c #A19052",
"~  c #8FA24A",
"^  c #99A15C",
"/  c #A4B75D",
"(  c #94866A",
")  c #998175",
"_  c #9D8479",
"`  c #9F897A",
"'  c #A4826A",
"]  c #A98469",
"[  c #A48772",
"{  c #A58976",
"}  c #AB8B73",
"|  c #A38B7D",
" . c #AB8E7A",
".. c #A09075",
"X. c #AD927E",
"o. c #A9987E",
"O. c #B2937D",
"+. c #A5A06F",
"@. c #A8BA63",
"#. c #B0BF63",
"$. c #B0BA6F",
"%. c #ACB070",
"&. c #B0B276",
"*. c #B4BB73",
"=. c #B4B27B",
"-. c #B9B77F",
";. c #ADC861",
":. c #B5CB63",
">. c #B9CD65",
",. c #B3CA6B",
"<. c #BBD969",
"1. c #BECE77",
"2. c #BDC37C",
"3. c #C1C97C",
"4. c #C3DC74",
"5. c #C5E077",
"6. c #C8E477",
"7. c #CCE67F",
"8. c #A68E81",
"9. c #A79084",
"0. c #AD9586",
"q. c #AE978A",
"w. c #AF9A8C",
"e. c #B09788",
"r. c #B29B8C",
"t. c #B99F8E",
"y. c #AF9F93",
"u. c #B59E92",
"i. c #B2AA83",
"p. c #B7A08F",
"a. c #BAA08E",
"s. c #B5AC8A",
"d. c #B8B481",
"f. c #BFBF86",
"g. c #B6A193",
"h. c #BAA395",
"j. c #BCA699",
"k. c #BDA59A",
"l. c #BDA99B",
"z. c #C2AA97",
"x. c #C2AB9D",
"c. c #C5AE9E",
"v. c #C5B69B",
"b. c #C2AEA1",
"n. c #C5B3A5",
"m. c #C9B4A5",
"M. c #C9BAA3",
"N. c #C7B6A9",
"B. c #CBB6A9",
"V. c #CEB8A9",
"C. c #CEB9AB",
"Z. c #CEBBAE",
"A. c #D0BBAD",
"S. c #CFBDB0",
"D. c #D2BEB1",
"F. c #C2CA84",
"G. c #CADD82",
"H. c #D0DF8D",
"J. c #C6C493",
"K. c #C9C19A",
"L. c #CDE086",
"P. c #CFE389",
"I. c #D3CCA3",
"U. c #D6CFAE",
"Y. c #D4C2B5",
"T. c #D5C2B5",
"R. c #D6C4B8",
"E. c #D8C7BC",
"W. c #D9C7BC",
"Q. c #DAC9BE",
"!. c #DCCDC1",
/* pixels */
", # 1 r y # ; > & r u > u u & > 9 r 1 , , y 1 & r 9 ; % + O > 9 1 $ > 3 4 $ % $ $ X ",
"r , - $ & 9 & y 1 > 9 , u u > X 9 u V c.c.e.K x 9 u % 1 ; $ , ; ; = $ ; - % $ # ; - ",
"9 r & 1 r u % r ; u u 1 r r 1 r $ ' m.A.R.R.E.!.Y.- > & O @ ; % 9 1 ; ; $ O % O % > ",
"; > ; u u u 9 1 & u 9 r g g g s O.V.V.V.R.R.Y.V.E.a r r $ $ > & $ $ 1 > + . X % 9 ; ",
"- u > r 9 y u u $ , u s s h N a.V.V.V.B.Y.A.V.V.Y.O.t 1 u 1 1 , ; $ , r 9 > 1 - ; 1 ",
"> u y y g h u 1 u 1 h u s u h.x.l.k.k.k.A.V.A.Y.R.E.D.V u , 9 9 1 1 ; 9 9 , 9 9 > , ",
", u p r h h r u g r r u s Z D.S.B.b.b.k.Z.Y.R.R.R.R.R.R.h.5 u r 9 , u ; - > 1 1 1 9 ",
"r , r - 1 r r r u h , , , V D.Y.Y.Y.D.Z.B.Z.S.D.Y.R.R.Q.R.c.u r 9 , 1 % ; & > $ 1 1 ",
"u & ; r r y , y s % & 1 : m x.x.n.n.n.l.l.n.n.n.n.N.V.Z.V.V.' t 9 u u 1 1 9 ; 1 % % ",
"> X ; r 1 5 1 ; & & $ ; & G | 9.h.l.h.k.k.n.n.n.n.n.l.k.b.S.Y.[ 1 s s 9 9 u 9 , ; , ",
"u $ , % , g y u r 1 > % , ' | ) _ 9.0.e.e.k.b.n.l.l.b.b.x.l.x.B.c.' c.Z.k.} x 9 > & ",
"1 9 q r r r s s u > , , % [ 0.) ) ) ) _ | 9.h.h.k.k.k.k.k.k.k.l.m.m.V.R.V.V.Y.V.r $ ",
"9 1 , 9 s y , r 5 , r '  .q.0.8.) ) ) ) ) ` k.l.l.k.k.k.k.k.k.k.u.k.k.n.k.m.D.Y.[ > ",
"u > y ; r u u u u c h.D.R.R.Y.h.8.) ) D ) h.0.0.t.u.k.k.k.h.g.0.L | g.u.9.h.m.m.V.% ",
"1 9 s y 1 9 l M t.V.A.R.R.R.R.Z.0.o.r.D.n.t.0.0.0.0.0...%.) ) i.g.w.| 8._ q.m.m.m.% ",
"# 9 , ; > 9 E t.K.v.Z.Y.R.R.R.U.2.F.m.m.B.D.k.0.0.=.d._ ,.&.` I.R.R.Z.| 8.q.h.x.h.% ",
"> O $ u u x $.( g.P.n.n.N.S.R.m.4.3.m.k.n.A.b.D L | @.F.;.4.s.M.A.D.V.9.g.e.t.a.6 $ ",
"u ; % y 1 _ *.~ 8.H.J.n.b.u.w.X.C X.k.h.h.m.V.F 3 R W <.4.7.F.k.g.x.h.n.Y.r.F a ; & ",
"1 1 ; 9 1 P +.<.^ L.-.f.L ) ) N ' _ 8.r.r.k.n.m.] 9 k Y T Y U | ) _ 9.u.b.[ 9 1 u 1 ",
"; , $ $ , B G :.5.6.G.1.L J 8 h [ | | 0.0.e.r.u.x.} > d p h d 9 i 9 x V V u t 9 9 u ",
"u u r , u h 9 ! >.:./ n a u r # z ) | 0.| q.0.0.9. .> u h s u u 9 u r s g g , 1 @ @ ",
"y u 9 r y g u u r & $ u p s I c.y.g.q.` c J c v j s , u g h r 9 s u 1 9 - , : 1 9 > ",
"u u u u p s s r - O d u u } m.A.R.R.E.!.R.u u d j s ; d s u s h h j 1 1 h h w 1 9 9 ",
"u 1 ; r r , X o   9 u u X.V.V.V.R.R.Y.V.W.r h s d s ; u d s 9 j d s u 9 u s s u 9 u ",
"> y r % $ % , 9 9 X u t.V.V.V.B.Y.A.V.V.Y.X., , ; & X * > $ 9 1 > 9 r u s s 9 s 1 r ",
"O > u 9 r y > - 1 $ u.x.l.k.k.k.A.V.A.Y.R.E.D.V u X u 9 j d s s 9 s 1 f f s j r 1 > ",
"% O $ > u 1 - ; 9 b D.S.B.b.b.k.Z.Y.R.R.R.R.R.R.h.5 d u u j f 0 s j u j d f 9 9 9 > ",
"% & & > r > ; , ; M D.Y.Y.Y.D.Z.B.Z.S.D.Y.R.R.Q.R.m.j s d u w u u d j 9 d s 1 u 9 y ",
"9 9 1 9 u u u 9 r ' x.x.n.n.n.l.l.n.n.n.n.N.V.Z.V.V.} f h u s s 1 u r > 0 u u 9 1 y ",
"1 9 w 9 u u 9 u s ' | 9.h.l.h.k.k.n.n.n.n.n.l.k.b.S.Y.O.r u 9 0 1 9 d 1 1 u 9 q 1 u ",
"$ ; ; : w 1 9 g y [ | ) _ 9.0.e.e.k.b.n.l.l.b.b.x.l.x.B.c.' z.Z.z.} V 1 9 9 9 ; > 9 ",
": 1 1 % % 1 u u u [ 0.) ) ) ) _ | 9.h.h.k.k.k.k.k.k.k.l.m.m.V.R.V.V.Y.V.9 % + $ % & ",
"u 9 - > $ u u H O.t.0.8.) ) ) ) ) ` k.l.l.k.k.k.k.k.k.k.u.k.k.n.k.m.D.Y._ + 9 O ; 1 ",
"9 1 $ X + V h.D.R.R.Y.h.8.) ) D ) h.0.0.t.u.k.k.k.h.g.0.L | g.u.9.h.m.m.V.; : % > % ",
"> O = a p.V.A.R.R.R.R.Z.0.o.r.D.n.t.0.0.0.0.0...%.) ) i.g.w.| 8._ q.m.m.m.> % $ > + ",
"> ; Y t.K.v.Z.Y.R.R.R.U.2.F.m.m.B.D.k.0.0.=.d._ ,.&.` I.R.R.Z.| 8.q.h.x.h.1 ; 9 O : ",
"9 x $.( g.P.n.n.N.S.R.m.4.2.m.k.n.A.b.D L | @.F.;.4.s.M.A.D.V.9.g.e.t.a.5 $ $ & $ 1 ",
"1 _ *.~ 8.H.J.n.b.u.w.| 7  .k.h.h.m.V.B a E Q <.4.7.F.k.g.x.h.n.Y.w.F x : $ , $ 1 1 ",
"> L +.<.^ L.-.f.L ) ) , m _ 8.r.r.k.n.n.H 1 k e T R R | ) ) 9.u.b.{ , 9 , ; 1 % ; , ",
"% z A :.5.6.G.1.L S i % ) | | 0.0.e.r.u.x.[ 1 1 1 > 9 r 2 # 5 z x r & $ 9 , , 1 $ $ ",
"# $ 1 k :.:.#.n < 1 , % 8 ) | 0.| q.0.0.9. .9 9 , 9 1 O > ; > 1 ; > ; , X & 1 > + 1 ",
"X # $ # , > ; > O 1 > ; ; < A c 8 A z 5 1 1 1 1 ; $ O ; 1 9 > : % % % ; - + $ ; % 1 "
};
