/* XPM */
static char *a6aa52d191b14e5d8553f38e9a814879[] = {
/* columns rows colors chars-per-pixel */
"42 42 206 2 ",
"   c #533D28",
".  c #57402C",
"X  c #5C442D",
"o  c #5C4234",
"O  c #61462E",
"+  c #65492F",
"@  c #694B2F",
"#  c #614730",
"$  c #664A31",
"%  c #6B4D33",
"&  c #6F4F39",
"*  c #704F35",
"=  c #6F5035",
"-  c #6F5239",
";  c #735236",
":  c #795536",
">  c #755439",
",  c #7A563A",
"<  c #7D593C",
"1  c #12237D",
"2  c #26327B",
"3  c #3D397C",
"4  c #4C3F5E",
"5  c #4A3E7A",
"6  c #3B4776",
"7  c #745742",
"8  c #7E5B40",
"9  c #7D5C4A",
"0  c #695959",
"q  c #785B57",
"w  c #4E6D5D",
"e  c #78684D",
"r  c #594C6A",
"t  c #494A71",
"y  c #484A77",
"u  c #655E67",
"i  c #656769",
"p  c #7C7B6B",
"a  c #6E6E71",
"s  c #835C3D",
"d  c #895F3E",
"f  c #87603F",
"g  c #8A613F",
"h  c #825D41",
"j  c #845E41",
"k  c #885F41",
"l  c #866042",
"z  c #886042",
"x  c #8A6142",
"c  c #8C6343",
"v  c #8D6345",
"b  c #8E6446",
"n  c #8A644A",
"m  c #916645",
"M  c #926646",
"N  c #946846",
"B  c #986946",
"V  c #916748",
"C  c #926749",
"Z  c #946949",
"A  c #9A6B4B",
"S  c #846854",
"D  c #887157",
"F  c #001C9C",
"G  c #052488",
"H  c #02229D",
"J  c #002C9F",
"K  c #0C2F9A",
"L  c #102A99",
"P  c #0E3B95",
"I  c #253788",
"U  c #37389C",
"Y  c #001DA1",
"T  c #001EAB",
"R  c #001DB4",
"E  c #0C25A3",
"W  c #042AA7",
"Q  c #0032A2",
"!  c #0639A5",
"~  c #083DA6",
"^  c #1534A3",
"/  c #0133B6",
"(  c #323EB6",
")  c #0C4298",
"_  c #284C97",
"`  c #0C42A7",
"'  c #0A49A4",
"]  c #0E48A9",
"[  c #114EA6",
"{  c #1354A6",
"}  c #1353AD",
"|  c #0C46B7",
" . c #1559B8",
".. c #2D41B9",
"X. c #3447B9",
"o. c #375DBD",
"O. c #1965BD",
"+. c #2F78B5",
"@. c #4C5782",
"#. c #517287",
"$. c #4B4EB4",
"%. c #4452B8",
"&. c #4168A5",
"*. c #0025C2",
"=. c #023BC8",
"-. c #0235D4",
";. c #1849C9",
":. c #1255CC",
">. c #0846D5",
",. c #2642C4",
"<. c #3858CA",
"1. c #1B64C4",
"2. c #1A67C7",
"3. c #1D6DCA",
"4. c #0D78C6",
"5. c #1F72CF",
"6. c #1F73D6",
"7. c #2272CC",
"8. c #2076D5",
"9. c #2278D9",
"0. c #237BDB",
"q. c #3B77D2",
"w. c #1B6AE7",
"e. c #1F76EC",
"r. c #1A6AF3",
"t. c #2469E0",
"y. c #247EE0",
"u. c #237DF1",
"i. c #4455C3",
"p. c #5262CA",
"a. c #4A6AD0",
"s. c #5774D7",
"d. c #6C77D5",
"f. c #1FA0A1",
"g. c #5D8F8A",
"h. c #71AFAF",
"j. c #1196CE",
"k. c #2D88CF",
"l. c #1DBECE",
"z. c #0EB4DB",
"x. c #36B4C9",
"c. c #1E92E3",
"v. c #1E9FEF",
"b. c #1D99F2",
"n. c #2682E4",
"m. c #2789E5",
"M. c #2685EA",
"N. c #268CEB",
"B. c #298CE8",
"V. c #2E9CE7",
"C. c #2594EC",
"Z. c #249BEE",
"A. c #258AF5",
"S. c #2293F3",
"D. c #2796F1",
"F. c #0AABEB",
"G. c #0AABEC",
"H. c #1DA3ED",
"J. c #18A6EC",
"K. c #11ABEA",
"L. c #09B5E7",
"P. c #03B5E9",
"I. c #00BDE8",
"U. c #11BAEC",
"Y. c #26A6E9",
"T. c #39ABEA",
"R. c #26B8E9",
"E. c #4B87D4",
"W. c #5F87D5",
"Q. c #638FDA",
"!. c #798BDF",
"~. c #4783E2",
"^. c #6E92E6",
"/. c #7A98E7",
"(. c #45BEEC",
"). c #53B7E9",
"_. c #67AAE6",
"`. c #7AACE9",
"'. c #6AB9EA",
"]. c #7BB4EB",
"[. c #77B9E9",
"{. c #08C7E7",
"}. c #00C4E8",
"|. c #01CCE8",
" X c #14CBE9",
".X c #00D2E8",
"XX c #08D4E8",
"oX c #00DBEA",
"OX c #2AC9EA",
"+X c #35CEE9",
"@X c #00E4EB",
"#X c #00E8EC",
"$X c #4FC5CF",
"%X c #4CC6EC",
"&X c #56C4EC",
"*X c #7BC3ED",
"=X c #75CDEE",
"-X c #7BCAEE",
";X c #7CD8EF",
":X c #7EDFF1",
">X c #7DE2F1",
",X c #8193E4",
"<X c #86A7EE",
"1X c #87BAED",
"2X c #80C3ED",
"3X c #80E5F1",
/* pixels */
", # < h l # ; > & j x > x x & > s j < , , l < & j s ; % + O : s < $ : 7 7 $ % $ $ . ",
"j , = $ & s & x < > s , x v > X s x x % s , < ; s x % < ; $ , ; ; = $ ; = % $ # ; = ",
"s h & < j x % j ; x x < j h < h $ j < > k s j , % & > & O @ ; % s < ; ; $ O % + % > ",
"; > ; x x b s < & v s h V V V m > & > & s n v x $ s j j $ $ > & $ $ < > +   X % s ; ",
"= b > j s l x x $ , x m m Z Z b % m m m * @.m & $ s k < x < < , ; $ , j s > < = ; < ",
"> b l l V Z x < x < Z x m b s & s N b x q L > ; s s c s x , s s < < ; s s , s s : , ",
", b V h Z Z h x V h j x m Z Z j , m s c 3 H t % , ; < , , & b j j , x ; = > < < < s ",
"h , h - < h h j v Z , , , s , , % B s 9 ^ F $.> > < % c v s j j s , < % ; & : $ < < ",
"b & ; j h x , l m % & < : % s x k ; N 3 E F i.r : s s x N j s k s b x < < s ; < % % ",
"> X ; j < 8 < ; & & $ ; & s : : m , o ( F H X.$.$ c s k < v x ; < m m s s x s , ; , ",
"x $ , % , V x b j < > % , s s : g ; 3 ..H J E !.5 s , c m < j j x x x < s s : , > & ",
"< s f j h h m m x > , , % , < < h 4 %.Y J Q J W.p.q Z < j h s s x m b < s , s : s $ ",
"s < , s m x , j 8 , j m x < < % q U <.J ! ~ ! o.].U V < Z x Z m x x N < , x > @ + : ",
"c > l ; j x x x b & j s v m m < 2 d.W Q ] ] ` ` ].W.5 ; A A A Z s ; h < : > , O % % ",
"< s m l < s Z l < & s b x b Z t %.<.W ~ } } } ] W.-XX.r A B B x g < > < $ s s > + % ",
"# s , ; > s b Z V > Z Z V V q G !./ Q }  .O. . .q.-X/.L S b x s < : X : , c s < X % ",
"> O $ x x , s Z x $ m b m 9 1 s.a.W | 2.3.3.3.2.2.[.2X%.I k c , j > : s c < s = % $ ",
"x ; = l < s b A b   m c b 6 ~ <X;./ 2.6.9.9.8.3.2.Q.:X!.E r , b g c g b d : s , ; & ",
"< < ; s < h b V x , # v q G ~.^.=.>.9.9.9.9.8.5.3.E.;X`.X.K 9 m b g m m s : s < v < ",
"; , $ $ , j j V V V > . 2 | ].q.=.:.n.n.y.9.8.5.3.q.-X-Xd.H y s s s m m m c k s s x ",
"x b j , x Z s m Z V X 0 G B.1Xt.>.e.M.n.n.9.8.5.3.7.[.>X,XE ! n j b j m V V , < @ @ ",
"l b s h x V x x j & $ 6 ' T.1Xw.w.M.M.M.n.y.9.5.3.2.[.3X`...W t m x < s = , : < s > ",
"b b x b V m m j ; O m P 4.(.`.u.u.N.N.N.N.n.0.8.3.2._.>X].i.F _ Z A < < Z Z c < s s ",
"b < ; h h , X X   s a P j.&X_.N.S.Z.C.C.N.N.n.9.7.3._.>X*Xp.F ` V m x s b m m x s x ",
"> x j % $ % , s s X i ) I.&X).v.J.K.H.v.Z.C.m.n.9.7._.>X-Xp.F ~ 0 j j b m m s m < j ",
"O > x s j l > - < # 6 [ .X%X(.P.P.P.P.F.H.Z.C.m.9.8.'.>X-Xp.Y ~ u m < B B m B j < > ",
"% O $ > x < = ; s < @.{ oX+XOXI.|..X}.P.F.H.C.N.M.9.'.>X*Xi.Y ~ i B v B N B s s s > ",
"% & & > j > ; , ; j #.{ oXOX X|.oX@XoX}.P.K.Z.C.m.m.=X;X]...T | u N B s m m < x s l ",
"s s < s b v b s s b a } {. X{..X@X#X@X.XI.L.Y.Z.B.V.=X=X/.W R | 0 c s : d c x s < l ",
"< s g s x x s x m Z S O.z.oX|..XoX@X@XoX}.L.H.Z.C.Y.).].s.T *.2.< s N < < c s f < x ",
"$ ; ; : g < s V x Z , +.j.#X.X.XoXoXoX.X}.L.H.Z.Z.C.D./.,.*.>.&.s : s > s s s ; > s ",
": < < % % < x b x Z v #.O.XX@X.X.X.X.X|.}.L.H.Z.A.A.w.;.*.-.6.a x @ X s s % + $ % & ",
"x s = > $ x x x x Z x - k.j.@X@X.X|.}.}.P.K.H.v.S.u.>.-.>.w.k.$ $ + : ; % + s O ; < ",
"s < $ X + s s s s x x $ i k.z.@X#X@XoX.X|.|.I.K.A.r.r.r.u.k.S s ; > x & ; ; : % > % ",
"> O $ ; % s s < < + $ < $ g.c.L.|.oX@XoX.X}.G.b.b.b.S.D.T.p g s s , & % < : % $ : + ",
"> ; , > $ O O $ & s , s % : g.Y.L.}.|.|.}.}.}.I.P.K.Y.).a s g x s ; ; , s < ; s O : ",
"h < < > s s $ % < s < s & & % e x.U.L.{..X.X|.{.R.%Xh.D : s s s s & * ; $ $ $ & $ < ",
"< < , ; l k = + : s $ % + s < ; $ w f.l.XXXX+X$Xh.p , < * s l < > $ < < : $ , $ < < ",
"> , % > s s < O , ; ; = ; s s , < < ; s x 9 8 , s > < s > > < ; $ & , s , ; < % ; , ",
"% > ; ; < < ; $ ; ; : % ; O , : ; % < ; s j < < < > s < $ O @ & < < & $ s , , < $ $ ",
"$ % < $ ; > , $ % < : % = O ; > > $ % ; : < s s , s < O > ; > < ; : ; , X & < > + < ",
"X # $ O > > ; > O < : ; ; & = : * + : > , < < < ; $ O ; < s , : % % % ; = $ $ ; & < "
};
