/* XPM */
static char *_d4e686b59534b95988f537c8327cadc[] = {
/* columns rows colors chars-per-pixel */
"42 42 210 2 ",
"   c #040201",
".  c #0D0101",
"X  c #0D0808",
"o  c #0B0D0D",
"O  c #120000",
"+  c #1D0101",
"@  c #160F0A",
"#  c #17120E",
"$  c #0D1010",
"%  c #171618",
"&  c #141B1D",
"*  c #210000",
"=  c #2A0004",
"-  c #2C000A",
";  c #34000A",
":  c #35000A",
">  c #3B0417",
",  c #241A11",
"<  c #281D12",
"1  c #2D2017",
"2  c #37271A",
"3  c #161E20",
"4  c #311729",
"5  c #192224",
"6  c gray14",
"7  c #222E32",
"8  c #372C30",
"9  c #273639",
"0  c #393B3C",
"q  c #4A0115",
"w  c #480216",
"e  c #53001A",
"r  c #5A001E",
"t  c #5B0726",
"y  c #560B2E",
"u  c #680529",
"i  c #790736",
"p  c #740D32",
"a  c #493423",
"s  c #523B26",
"d  c #533C28",
"f  c #5C432C",
"g  c #554439",
"h  c #61462E",
"j  c #65492E",
"k  c #6A4B2F",
"l  c #614730",
"z  c #664A31",
"x  c #6B4D33",
"c  c #6A4E3A",
"v  c #704F34",
"b  c #6E5036",
"n  c #6F523B",
"m  c #735236",
"M  c #795636",
"N  c #755439",
"B  c #79563A",
"V  c #7D593C",
"C  c #7E1241",
"Z  c #642C59",
"A  c #593861",
"S  c #34474C",
"D  c #384C51",
"F  c #3B5056",
"G  c #3D5359",
"H  c #4B4B4B",
"J  c #4B5150",
"K  c #575858",
"L  c #6F5747",
"P  c #745741",
"I  c #745943",
"U  c #7C5B43",
"Y  c #745D4D",
"T  c #7B5E4A",
"R  c #6A5750",
"E  c #7E614B",
"W  c #7C6455",
"Q  c #455E64",
"!  c #625966",
"~  c #4A646C",
"^  c #4E6A71",
"/  c #516D75",
"(  c #676767",
")  c #60767D",
"_  c gray48",
"`  c #83063F",
"'  c #835C3D",
"]  c #86603F",
"[  c #8B0F4A",
"{  c #881747",
"}  c #941A56",
"|  c #99215C",
" . c #99136C",
".. c #A11478",
"X. c #992568",
"o. c #9F3162",
"O. c #9E2773",
"+. c #A32C75",
"@. c #845E42",
"#. c #885F41",
"$. c #866043",
"%. c #8A6243",
"&. c #85644B",
"*. c #8D674C",
"=. c #906646",
"-. c #906749",
";. c #94694A",
":. c #846653",
">. c #866854",
",. c #8C6B54",
"<. c #846B5C",
"1. c #8B6D5A",
"2. c #936E55",
"3. c #8F715E",
"4. c #93735E",
"5. c #99745C",
"6. c #896E61",
"7. c #8A736A",
"8. c #937563",
"9. c #987867",
"0. c #9A7C6B",
"q. c #8C7674",
"w. c #987C75",
"e. c #A17D67",
"r. c #9D817A",
"t. c #A5816D",
"y. c #A48273",
"u. c #A7877B",
"i. c #5B7B84",
"p. c #8F3685",
"a. c #AB2B83",
"s. c #AE368A",
"d. c #AE3A97",
"f. c #B929B6",
"g. c #9F5281",
"h. c #B44694",
"j. c #84688E",
"k. c #BE57B3",
"l. c #C148B3",
"z. c #C05FB7",
"x. c #C43BC3",
"c. c #B865CD",
"v. c #CB47D7",
"b. c #CD52D1",
"n. c #CD76D4",
"m. c #D27DD4",
"M. c #D04DE2",
"N. c #D358E6",
"B. c #D86BF4",
"V. c #D874F0",
"C. c #6D8991",
"Z. c #6D929D",
"A. c #749CA8",
"S. c #78A3AF",
"D. c #7BA5B1",
"F. c #838383",
"G. c #9B8390",
"H. c #989898",
"J. c #A68A87",
"K. c #AE8F93",
"L. c #AB9395",
"P. c #B5999B",
"I. c #B89AA9",
"U. c #AD9CB4",
"Y. c #BF99B8",
"T. c #82B0BD",
"R. c #A2A2A2",
"E. c #BBA3A6",
"W. c #BAB2B5",
"Q. c #C39BBD",
"!. c #C4A9BA",
"~. c #86B6C3",
"^. c #8CBECC",
"/. c #C596CA",
"(. c #CB90D2",
"). c #D398DD",
"_. c #CBB3C5",
"`. c #D1BCCF",
"'. c #D2ACD2",
"]. c #CEB9D1",
"[. c #D48BEC",
"{. c #D694E7",
"}. c #DC87F6",
"|. c #DFAFE8",
" X c #DBB4E7",
".X c #E3B9F5",
"XX c #8EC0CE",
"oX c #97CCDB",
"OX c #9ED7E7",
"+X c #A0D8E7",
"@X c #A2DBEB",
"#X c #AADEED",
"$X c #B0DCE9",
"%X c #ADE0EE",
"&X c #B3E2EF",
"*X c #BBE5F0",
"=X c #CCC5CC",
"-X c #D8D8D8",
";X c #DDCAE8",
":X c #C4DFE6",
">X c #DDE9EC",
",X c #C5E8F3",
"<X c #D3EEF6",
"1X c #DDF1F7",
"2X c #EAEAEA",
"3X c #E4F5F9",
"4X c #E9F7FA",
"5X c #F3F3F3",
"6X c #F5FBFD",
"7X c #FFFFFF",
/* pixels */
"B l V @.$.l m N x @.$.B %.%.n T ,.,.,.>.8.y.0.6.9.1.:.N j f N ' V z M P I z x z z f ",
"@.B b z x ' b %.V N ' B $.;.:.Y 2.8.u.I.`.].`._.!.P.<.3.:.I V v m b z m b x z l m b ",
"' @.x V @.%.x @.m %.%.U ,.4.8.w.J._.;X X(.m.m.m.{..X!.w.Y <.T n ' V m m z h x j x N ",
"m N m %.%.%.' V x %.' $.5.8.y.P.=X|.k.O.i [ C X.+.l.}._.w.W 1.P z j V M j d f x @.N ",
"b %.N @.' $.%.%.z B 2.u.t.u.E.;X|.h.i i e e : w p o.h.V. XJ.8.&.N z B @.' N V b m V ",
"N %.$.$.-.;.%.U %.,.e.0.e.J.;X).O.r w : = * * * = w { O.M. XJ.4.&.' m ' ' B ' ' M B ",
"B %.-.@.;.;.@.%.;.,.9.%.y.`.|.+.w = * * * * * * * - e { a.N.'.w.4.&.%.m x N V V V ' ",
"@.N @.n V @.@.@.-.2.@.8.W.;Xp.t w + + + + + + + * * * w u d.}.K.9.1.&.x m x M z V V ",
"%.x m @.@.%.V $.=.n T J.U.z.} w + . . O O + * + + + * : p | b.).J.0.2.V V ' m V x x ",
"N f m @.V V V m x x W G..XZ . 0 _ C.) / D 7   . + + + * w { h.}.I.y.e.*.' %.' B m N ",
"%.x B x B -.%.%.#.,.L ].H 0 -X7X7X7X7X1X%X@XXX^   + + + * p o.v.|.u.9.8.@.' M B N x ",
"V ' ] @.@.@.=.=.*.c r.! J 7X7X7X7X7X7X7X6X%X@X@XA.  * + + + u p.}.I.e.8.2.B ' M ' z ",
"' V V ' =.%.V @.@.I G.6 2X7X7X7X7X7X7X7X7X4X@X@X@X3 O O . . - X.c.Y.y.8.>.%.N k j M ",
"%.N @.m @.%.%.%.U Y 8 H.7X7X7X7X7X7X7X7X7X7X#X@XS.o 7 ~ i./ 9 X A /.7.8.>.N B h x x ",
"V ' =.$.V ' ;.$.n q.$ 5X7X7X7X7X7X7X7X7X7X7X$X~ & D.%X%X@X@X@XXXG % q.W W ' ' M j x ",
"l ' B N N ' %.B 8.R H 7X7X7X7X7X7X7X7X7X7X5X0 K >X7X7X7X7X1X%X@X@X/ $ 9.Y %.' V f x ",
"N h z %.V m N ;.>.8 8 R.=X7X7X7X7X7X7X7X7X( ( 7X7X7X7X7X7X7X6X%X@X@XF g 1.U ' x x x ",
"%.m x N b V a # & ! ( J % K 5X7X7X7X7X7X=X6 2X7X7X7X7X7X7X7X7X4X@X@X^.X 8.n V B m x ",
"V V z V h X J =X7X7X7X7X2XJ H 7X7X7X7X7X( F.7X7X7X7X7X7X7X7X7X7X*X@X@X5 T n ' V %.V ",
"m B f a $ D.4X7X7X7X7X7X7X7X6 =X7X7X7X7X( H.7X7X7X7X7X7X7X7X7X7X1X@X@X9 T 5.x B ' %.",
"%.x N $ ~.%X7X7X7X7X7X7X7X7XJ W.7X7X7X7XW.H.7X7X7X7X7X7X7X7X7X7X4X@X@X9   1 h v j k ",
"m %.1 i.@X,X7X7X7X7X7X7X7X-X% -X7X7X7X7X7X7X7X7X7X7X7X7X7X7X7X7X4X@XXX& ^.C.o s N x ",
"V B & @X@X,X7X7X7X7X7X7X7X2XR.7X7X7X7X7X7X7X7X7X7X7X7X7X7X7X7X7X<X@XG ^ @X@X~.o z x ",
"N a Q @X@X&X7X7X7X7X7X7X7X7X7X7X7X7X7X7X7X7X7X7X7X7X7X7X7X5X7X6X%X/ & OX@X@X@X/ 2 %.",
"b 1 A.@X@X@X4X7X7X7X7X7X7X7X7X7X7X7X7X7X7X7X7X7X7X7X7X7X7XF.K Z.S & XX@X@X@X@XA., V ",
"h , D.@X@X@X&X7X7X7X7X7X7X7X7X7X7X7X7X7X7X7X7X7X7X7X7X7X7X6XF.K _ :X@X@X@X@X@XD.< z ",
"h , Z.@X@X@X@X<X7X7X7X7X7X7X7X*X3X7X7X7X7X7X7X7X7X<X7X7X7X7X7X7X7X&X@X@X@X@X@XG a b ",
"h 2 / @X@X@X@X@X&X4X7X7X7X3X#X@X&X6X7X7X7X7X7X7X<X@X,X6X7X7X7X7X<X@X@X@X@X@XXX& m m ",
"B h 5 @X@X@X@X@X@X@X#X&X@X@X@X@X@X#X,X4X4X4X<X&X@X@X@X#X,X<X<X*X@X@X@X@X@X@XS 2 b V ",
"f ' # C.@X@X@X@X@X@X@X@X@X@X@X@X@X@X@X@X@X@X@X@X@X@X@X@X@X@X@X@X@X@X@X@X@X^ # ' m %.",
"z j f $ T.@X@X@X@X@X@X@X@X@XoX^.@X@X@X@X@X@X@X@Xi.@X@X@X@X@X@X@X@X@X@XoXG @ B h x ' ",
"M N M s   ^ XX@X@X@X@X@X+XZ.$ & ^.@X@X@X@X@XoXS   S ^.@X@X@X@X@X@XOXZ.& 1 j f f x x ",
"%.' f x f 2   9 Q / ^ S $ 4 y > X D / / ~ 9   O * O   9 G ^ ^ Q 9 $ , s z d V h m V ",
"' V z d f N B f a g L R /.n.g.C u : O O O + + + + * * - > y p.j.7.U %.f j m M x N x ",
"N h z m x ' h x N g 7.<.q.}.l.{ t * + + + + + + * + = y i d.c.I.7.P z x B M x z M h ",
"N m B N z h h z x ' @.0.w.Q.}.s.{ t - * * * * * = e i i ..N.(.P.4.m m N ' V m ' h B ",
"V V V N ' ' z x V ' V 2.<.L.).M. .i i w = * * = r u [ O.N.).E.9.@.x v m z z z x z V ",
"V V V m $.#.b z M V b E Y 0.P.{.N.s.} [ u u t i i } a.M.[.!.u.&.N x V V M z B z V V ",
"N V x N ' ' B h B m M E E 8.9.P.{.B.b.h.} ` u [  .x.B.{.I.r.&.m z x B ' B m V x m B ",
"x N m m V V m z m m M b U I &.8.K./.[.B.v.f.f.v.B.[./.E.q.L z x V V x z ' B B V z z ",
"z z V z m N V z x V B x m l m V :.w.P.Y.(.{.{.).Q.E.J.W U m N V m M m B f x V N j V ",
"f l z l B N m N h V N m m x b M m x :.9.J.P.L.J.7.W c m V ' B B x x x m b z z m x V "
};
