/* XPM */
static char *b7b0187bcd574cfcbe577f9d4ddb8abb[] = {
/* columns rows colors chars-per-pixel */
"42 42 205 2 ",
"   c #210000",
".  c #2B0004",
"X  c #310007",
"o  c #34000A",
"O  c #3B000D",
"+  c #3E0311",
"@  c #40000E",
"#  c #440213",
"$  c #4A0115",
"%  c #4D0318",
"&  c #53001A",
"*  c #56031D",
"=  c #5E0322",
"-  c #5A0A23",
";  c #610223",
":  c #6B042B",
">  c #67082A",
",  c #70052C",
"<  c #6E0932",
"1  c #720331",
"2  c #7C0535",
"3  c #710C32",
"4  c #770837",
"5  c #7D0B39",
"6  c #6D1234",
"7  c #76143A",
"8  c #523D27",
"9  c #5C432D",
"0  c #54453C",
"q  c #61462E",
"w  c #65492F",
"e  c #6A4B2F",
"r  c #614730",
"t  c #654A31",
"y  c #6B4D33",
"u  c #6B4F3A",
"i  c #704F34",
"p  c #6E5035",
"a  c #6F513A",
"s  c #735236",
"d  c #795536",
"f  c #755439",
"g  c #79563A",
"h  c #7D593C",
"j  c #7F0B41",
"k  c #6D5544",
"l  c #735842",
"z  c #7C5C43",
"x  c #795B46",
"c  c #745D4D",
"v  c #7E614B",
"b  c #7D6454",
"n  c #820C3E",
"m  c #835C3D",
"M  c #895F3E",
"N  c #87603E",
"B  c #8A613F",
"V  c #870B46",
"C  c #881745",
"Z  c #91104D",
"A  c #8E1953",
"S  c #941B58",
"D  c #85204F",
"F  c #8D2256",
"G  c #952558",
"H  c #99136C",
"J  c #A11478",
"K  c #9D2B64",
"L  c #9C256B",
"P  c #9D3366",
"I  c #9E2773",
"U  c #9C3371",
"Y  c #A02D68",
"T  c #A42578",
"R  c #A43779",
"E  c #845E41",
"W  c #885F41",
"Q  c #866043",
"!  c #8B6344",
"~  c #84644C",
"^  c #8D664B",
"/  c #8F694D",
"(  c #916645",
")  c #986947",
"_  c #916749",
"`  c #93694B",
"'  c #996C4B",
"]  c #836652",
"[  c #866854",
"{  c #8C6B54",
"}  c #856B5A",
"|  c #8B6D5B",
" . c #936E54",
".. c #936E57",
"X. c #8F715E",
"o. c #93725D",
"O. c #9B7459",
"+. c #A84476",
"@. c #8C7267",
"#. c #947563",
"$. c #947767",
"%. c #9A7662",
"&. c #9C7A64",
"*. c #95796C",
"=. c #9A7C6B",
"-. c #8F7670",
";. c #8E7971",
":. c #947C75",
">. c #9E7F72",
",. c #977C7B",
"<. c #A17C65",
"1. c #A17E69",
"2. c #9F816F",
"3. c #9D817A",
"4. c #A4816D",
"5. c #A48272",
"6. c #A6867B",
"7. c #A6887A",
"8. c #AE8B7B",
"9. c #AB2B83",
"0. c #AC3786",
"q. c #B13995",
"w. c #B838A3",
"e. c #B929B6",
"r. c #B14C89",
"t. c #B44896",
"y. c #B9589A",
"u. c #A27E80",
"i. c #BA45A6",
"p. c #BF52AA",
"a. c #BE57B3",
"s. c #C148B4",
"d. c #C45BB7",
"f. c #C564B6",
"g. c #C63ACB",
"h. c #C846CA",
"j. c #CB58CB",
"k. c #CB47D7",
"l. c #CC5AD1",
"z. c #D159DB",
"x. c #CD63CE",
"c. c #D07FCD",
"v. c #D269DA",
"b. c #D27CD3",
"n. c #D373DA",
"m. c #D04DE2",
"M. c #D35EE4",
"N. c #D351E9",
"B. c #D467E5",
"V. c #D776E8",
"C. c #D86BF4",
"Z. c #D977F9",
"A. c #A68A83",
"S. c #AD8E81",
"D. c #A58788",
"F. c #A58D88",
"G. c #AA928C",
"H. c #B09388",
"J. c #A68C97",
"K. c #B48D9B",
"L. c #AC9491",
"P. c #AB9598",
"I. c #B59898",
"U. c #B59B9A",
"Y. c #B798A6",
"T. c #B99DAC",
"R. c #BA9CB5",
"E. c #BBA2A5",
"W. c #BDA6AA",
"Q. c #BFA4B1",
"!. c #C09DB2",
"~. c #C29CBD",
"^. c #C0A0AA",
"/. c #C4A9B8",
"(. c #C997C9",
"). c #D086D0",
"_. c #CD9AD7",
"`. c #D297DA",
"'. c #D19DDC",
"]. c #CCA8C8",
"[. c #D0A9CF",
"{. c #CBB3C5",
"}. c #D1BACF",
"|. c #D3A6DB",
" X c #CEB9D1",
".X c #D5BBD4",
"XX c #D7B4DA",
"oX c #D885E8",
"OX c #D68EED",
"+X c #D495E4",
"@X c #D998EB",
"#X c #DB84F4",
"$X c #DC89F8",
"%X c #DD96F7",
"&X c #E19BF5",
"*X c #DFAFE8",
"=X c #DBB4E7",
"-X c #DFAAF2",
";X c #E0A1F3",
":X c #E3B6F4",
">X c #D5C0D6",
",X c #DDCAE6",
"<X c #DFCFE9",
"1X c #E1C0EE",
"2X c #E3C5F4",
/* pixels */
"g r h E Q r s f y E Q g ! ! a z { { { [ $.5.*.@.*.| ] f w 9 d m h t d l l t y t t 9 ",
"E g p t y m u ! h f m g Q ` ] c  .%.6.Y.}. X}.{./.I.| X.[ l h s s p t s p y t r s p ",
"m E y h E ! y E s ! ! z { o.#.>.D.{.<X=X).c.b.b.OX:X/.:.c } v a m h s s t q y w y f ",
"s f s ! ! ! m h y ! m Q O.%.5.I.>X*Xa.T 4 V j K T s.#X].,.b } l t w h d w 8 9 y E f ",
"p ! f E m Q ! ! t g  .7.4.8.E.<X*Xt.4 5 & & o $ 3 P t.V.=XD.$.~ f t g E m f h p s h ",
"f ! Q Q _ ` ! h ! { 1.=.<.S.,X+XI * $ O .       . $ C I z.=XF.o.~ m s m m g m m d g ",
"g ! _ E ` ` E ! ` { #.! 5..X*XR % .               X & C 9.M.[.>.o.~ ! s y f h h h m ",
"E f E a h E E E ^ O.z $.Q.2Xt.1 $                     @ : q.$XK.%.| ~ y s y d t h h ",
"! y s E E ! h Q ( a x F.,Xf.A = .                     o 7 G h.'.A.&. .h h m s h y y ",
"f 9 s E h h h s y y b Y.:X0.> X                         $ C t.#XT.5.1.^ m ! m g s f ",
"! y g y g _ ! ! W { ]  X).7 .                           . 6 Y k.|.6.%.#.E m d g f y ",
"h m Q E E E ( ( / x 3.1Xi.; .                             . , p.$XT.1.#. .g m g m t ",
"m h h m ( ! h E E ~ /.@XR #                                 O L V.].S.#.[ ! f e w d ",
"! f E s E ! ! ! ` } .Xb.D .                                 . F v.'.A.$.[ f g q y y ",
"h m ( Q h m ` Q ~ ,.1Xf.n O                                   6 d.OXF.$.b m m d w y ",
"r m g f f m ! ` &.D.:Xy.F o                                   ; y.#XJ.*.| ! m h 9 y ",
"f q t ! ! g m ` %.J.;X0.3                                     6 r.#X~.7.&.Q m y y y ",
"! s y Q h m ! ' &.R.&XR +                                     % Y V.[.H.#.z h g s y ",
"h h s m h E ! ` #./.oXV .                                     # P z._.S.o.z m h ! h ",
"s g y t g E E  .5.}.n.< o                                     + G B._.H.1.O.! m m ! ",
"! ! E f ! ` E  .4..Xx.5 @                                     o A z._.I.1.&.g g e e ",
"Q ! E E ! _ ! o.o.{.h.< .                                     o +.n.'.L.} { d g m f ",
"! ! ! ! ! ( !  .b R.n.+.o                                     o +.x._.G.4.O.! h m E ",
"! h s E E g 9 k 0 ^.oXK +                                     . K l.'.G.&.( ( ! h ! ",
"f ! E y t y g { { J.V.S #                                     # P B.(.S.O.( m ( h E ",
"q f ! m Q Q f b { J.oXA $                                     > r.#X].8.O.! ) E h s ",
"y q t f ! h p b o.u.&X9.%                                   . : t.$X/.8.' ) m m m f ",
"y y y f E f s ~ } >.-Xi.7 .                                 O 2 d.%X/.%.) ( h ! m E ",
"m m h m ! ! ! { #.&.XXh.K -                                 @ V j.@XI.~ M ! ! m h Q ",
"g m B m ! ! m ^ 4.<.^.oXU : .                               = L B.(.8.Q m ! m N h ! ",
"t s s d B h m ` o.1.A.%Xp.P > .                           O n d.#XY.*.d m m m s f m ",
"d h h y y h ! !  .&.5.|.x.K 4 O                           O F v.+XL.k m m y w t y y ",
"! m p d t ! ! ! / 1.%.T.%Xt.3 % .                       . 6 q.Z.R.;.h s y w m q s h ",
"m h t 9 w m m m m 2.4.-.|.V.y.C : @                   o = Z g.@XP.~ ! y s s d y f y ",
"d q t s y m m h h a ;.=.J.$Xs.G =                   . > V w.Z.!.5.~ y y g d y t d q ",
"f s g f t q q t y m E =.:.~.#X0.C = o .         . & 2 2 J N.).I.o.s s g m h s m q g ",
"h h h f m m t y h m h  .| L.'.N.H 1 5 $ .     . * : V L M.`.E.#.E y i s t t t y t h ",
"h h h s Q W p t d m a v c 2.I.@XM.0.S Z , : ; 2 4 S 9.m.OX/.6.~ f y h h d t g t h h ",
"f h y f m m g q g s d v v o.*.I.@XC.j.t.A n 1 V H g.C.+XT.3.~ s t y g m g s h y s g ",
"y f s s h h s t s s d y z l Q o.L.(.oXZ.k.e.e.k.C.OX(.E.;.k t y h h y t m g g h t t ",
"t t h t s f h t y h g y s r s h ] :.P.R.(.`.+X'.~.W.G.b x s f h s d s g 9 y h f w h ",
"9 r t r g f s f q h f s s y p d s y ] *.F.I.L.D.-.b u s h m g g y y y s p t t s y h "
};
