/* XPM */
static char *_ba9bd6cc11e4e5b82fbe7facd138561[] = {
/* columns rows colors chars-per-pixel */
"42 42 211 2 ",
"   c #000800",
".  c #001205",
"X  c #001805",
"o  c #001709",
"O  c #001C0B",
"+  c #00220D",
"@  c #002411",
"#  c #002B14",
"$  c #002E1A",
"%  c #003117",
"&  c #00331A",
"*  c #00391F",
"=  c #003521",
"-  c #003B22",
";  c #523D27",
":  c #004027",
">  c #00452B",
",  c #00482F",
"<  c #004731",
"1  c #004D34",
"2  c #004C38",
"3  c #00533C",
"4  c #5C442C",
"5  c #62462E",
"6  c #65492F",
"7  c #694B2F",
"8  c #614730",
"9  c #664A32",
"0  c #6B4D33",
"q  c #6E4F38",
"w  c #704F34",
"e  c #6E5035",
"r  c #6A533B",
"t  c #735236",
"y  c #795636",
"u  c #755439",
"i  c #795639",
"p  c #76593C",
"a  c #7D593C",
"s  c #005544",
"d  c #005A44",
"f  c #005E4C",
"g  c #00634D",
"h  c #006452",
"j  c #00685B",
"k  c #006E5D",
"l  c #00715E",
"z  c #006D62",
"x  c #006A67",
"c  c #007263",
"v  c #00726B",
"b  c #007C6D",
"n  c #007773",
"m  c #007C73",
"M  c #017D7A",
"N  c #5E5745",
"B  c #675B47",
"V  c #6C5C44",
"C  c #755C44",
"Z  c #785B42",
"A  c #6F654D",
"S  c #73654C",
"D  c #7A644B",
"F  c #7C6A4E",
"G  c #6A6A56",
"H  c #6C6A54",
"J  c #736B54",
"K  c #7C6C54",
"L  c #796B58",
"P  c #6E715D",
"I  c #7C745D",
"U  c #6A7564",
"Y  c #7E7964",
"T  c #787C67",
"R  c #757D6C",
"E  c #835C3D",
"W  c #895F3E",
"Q  c #87603E",
"!  c #8A613F",
"~  c #835E41",
"^  c #885F40",
"/  c #856143",
"(  c #8B6243",
")  c #836649",
"_  c #8A6648",
"`  c #87684C",
"'  c #8C6A4D",
"]  c #916645",
"[  c #986946",
"{  c #916748",
"}  c #94694A",
"|  c #836C52",
" . c #866F55",
".. c #8D7356",
"X. c #84755B",
"o. c #83755C",
"O. c #89755C",
"+. c #8D7A5E",
"@. c #947253",
"#. c #967758",
"$. c #867760",
"%. c #837A63",
"&. c #8C7C62",
"*. c #837F69",
"=. c #018278",
"-. c #7A806B",
";. c #6B8677",
":. c #7C8873",
">. c #758A7A",
",. c #7D8C7B",
"<. c #878066",
"1. c #8F8066",
"2. c #82836C",
"3. c #8C836B",
"4. c #93836A",
"5. c #8C8471",
"6. c #8D8973",
"7. c #8A8A79",
"8. c #918A77",
"9. c #88907C",
"0. c #008484",
"q. c #018A84",
"w. c #01838D",
"e. c #008A8A",
"r. c #01928C",
"t. c #018899",
"y. c #01959A",
"u. c #0289A5",
"i. c #039AA4",
"p. c #0194AD",
"a. c #0495B4",
"s. c #0399B6",
"d. c #02A3B8",
"f. c #10AEB5",
"g. c #6D9588",
"h. c #7A9586",
"j. c #739E93",
"k. c #4FA59D",
"l. c #5FA096",
"z. c #6AA59A",
"x. c #74A498",
"c. c #57B8B7",
"v. c #68A7A7",
"b. c #77ACA6",
"n. c #66B4A9",
"m. c #79B2A8",
"M. c #6EACB0",
"N. c #65B9B6",
"B. c #78B6B5",
"V. c #5AC0BA",
"C. c #6AC0BC",
"Z. c #0B99C7",
"A. c #1598C8",
"S. c #05A7C5",
"D. c #0DA3CC",
"F. c #11A0CF",
"G. c #0AB3C7",
"H. c #18B6C2",
"J. c #16BAC4",
"K. c #0BAFD1",
"L. c #1AA6D7",
"P. c #18B5D6",
"I. c #26B9D9",
"U. c #1FB9E6",
"Y. c #26AEE5",
"T. c #30ABE7",
"R. c #29BAE7",
"E. c #37BAEA",
"W. c #36AFF0",
"Q. c #35BBF2",
"!. c #5BAEC3",
"~. c #58BAD7",
"^. c #68B6C6",
"/. c #60B7CE",
"(. c #72BAC7",
"). c #63BEDA",
"_. c #43B8E8",
"`. c #5ABBE2",
"'. c #58BDE8",
"]. c #40B8F1",
"[. c #1DCBDF",
"{. c #25CAD9",
"}. c #2FD8DD",
"|. c #2DCDE2",
" X c #32C8E9",
".X c #37DCE8",
"XX c #3FE9EF",
"oX c #5ACFC9",
"OX c #5DD4CF",
"+X c #59C8DC",
"@X c #64C7C6",
"#X c #76C4C8",
"$X c #62D3CD",
"%X c #64C6DA",
"&X c #79C9D2",
"*X c #64D5D2",
"=X c #4BCDEF",
"-X c #51CFEA",
";X c #6ECAE7",
":X c #43E3EA",
">X c #5BE6E5",
",X c #8B9281",
"<X c #87988A",
"1X c #949989",
"2X c #8B9F93",
"3X c #919C91",
"4X c #95A79C",
"5X c #8DAEA7",
"6X c #93ACA4",
"7X c #86B0AD",
"8X c #87BBB3",
/* pixels */
"i 8 a ~ / 8 t u 0 ~ / i ( _ V J |  .K T R :.T P X.I p q 6 4 u E a 9 u Z Z 8 0 9 9 4 ",
"~ p e 9 q E q ( a u E i ` O.J B o.,.n.oXOX$XoXc.z.*.G I V 9 a t t e 9 t e 0 9 8 t e ",
"E ~ q a ~ ( 0 ~ t ( _ K %.Y -.g.V.>X.XH.f.H.H.{.:Xc.;.H G V u q E a t t 9 5 9 6 0 u ",
"t u t ( ( ( E a q ( / | &.:.x.*X}.i.v 2 d 3 k v t. X@Xh.G G C q 9 6 a u 6 ; 4 0 ~ t ",
"e ( u ~ E / ( ( 9 F 7.3.9.m.>X}.q.2 2 % $ o # < l 0.P.+Xh.Y F a t 9 i ~ E t a e t a ",
"u ( / / { } ( a X.I 6.o.,X>X{.c * # O           @ 3 v D.;Xg.o.) a a t E E i E E u i ",
"i ( { ~ } } ~ ( ..Y / 2.$X}.n # .               . & d n L.(.6.$. .a ( t q t a a a E ",
"~ u ~ q a ~ ~ ) ' @.T N.XXe., #                     + : 0.E.x.*.o.D a 0 t 0 u 9 a a ",
"( q t ~ ~ ( a / ' V g.>Xd.f -                       o 2 j a.~.,X%.O.( a a E t i 9 0 ",
"u 4 t ~ a a a t q G k..X=.: .                         # g q.E.M.2.<...E E ( E i t u ",
"( 9 i 0 p { ( ( X.K *XJ.2                               > c a.+X9.%.%.Z E E u i t q ",
"a E / ~ ~ ~ ] ' ' >.:Xe.- .                               > y.].m.3.<.| E i E i E 9 ",
"E a a E ] ( a / | N.{.b @                                 O z P.^.9.3.K i ( t 7 6 u ",
"( t ~ t ~ ( ( _ &.*XG.f .                                 . g S.+X,.2.K u u i 5 9 0 ",
"a E ] / a E } | >.:Xy.3 O                                   > i.E.<XT I 9 E E u 6 0 ",
"8 E i t u E _ &.x..Xr.g o                                   - r.].z.U I a ( E a 4 0 ",
"u 5 9 ( ( i ~ 1.b.|.m <                                     < q.U.N.,.o.' E E 0 9 0 ",
"( t 0 / a E _ 4.N.[.b O                                     # z K.&X1X&.` u a i t q ",
"a a t E a ~ ' &.C.P.d                                       @ c S./.1X&.) u E a _ a ",
"t i 0 9 i ~ ) 6.&XS.> o                                     O k S.~.1X1.+.( ( E E ( ",
"( ( ~ u _ } ) 3.&Xd.3 +                                     o g S./.3X3.&.{ i i 7 7 ",
"/ ( ~ ~ ( { O.O.#Xp.>                                       O b S.~.2XI J i y i E t ",
"( ( ( ( ( ] +. .B.G.=..                                     o b d.).<XI @.} ( a E ~ ",
"( a t ~ ~ i N B v.G.l @                                     . k s.).3Xo.( ] ] ( a ( ",
"u ( ~ 9 9 0 K X.m.I.h @                                     @ c D.^.8.+.] ] E ] a ~ ",
"5 u ( E / ( J H j.I.f @                                     : =.R.#X5.#.[ ] [ ~ a t ",
"9 5 9 u ( a A J ;.=Xn #                                     > e.Q.8X7.} [ [ E E E u ",
"9 q q t ~ u S I T -Xt.2                                   o 2 i.].8X4.E [ ] a ( E ~ ",
"E E a E ( _ ..%.$.%Xa.k =                                 + d s.'.4X .u W ( ( E a / ",
"i E ! E ( ( ) 2.&.7XI.c > .                               - k L.^.8.@.a E ( E Q a ( ",
"9 t t y ! a / +.$.<X-Xy.l :                             O 3 y.E.b.%.E t E E E t u E ",
"y a a 9 0 a ( ..O.6.+Xd.k 1 O                           O h D.`.4XC 4 E E 0 6 9 0 w ",
"( E e u 9 ( ( _ <.1.m. Xq.< $                         . < 0.W.M.R 0 t t 0 6 E 5 t a ",
"E a 9 4 6 E E E 2.2.9.%XK.r.d : +                   . * f a.;X4XD i / 0 t t y 0 t 9 ",
"u 5 9 t 9 E E a D ;.U l.E.y.h *                   . - d w.W.B.3. .i 0 0 i u 0 9 u 5 ",
"u t i t 9 5 5 9 q ) -.:.c.R.M d - X             & 2 2 x L.!.4X+.E t t i E a t E 5 i ",
"a a a u E E 9 9 a / F %.j.%XF.j < 3 #         & > d z D.~.5X&.~ E q w t 9 9 9 q 9 a ",
"a a a t / ^ e 9 u ~ B H U x.'.D.M h d > : - 2 2 h n Z.'.B.8.' E u 9 a a y 9 i 9 a a ",
"u a 0 u E E i 5 i u S A J *.x.`.Y.s.0.h 3 > s x u.T.`.7X7.D a t 9 0 i E i t a 0 t i ",
"0 u t t a a t 9 t t p V S r Y j.!._.Y.A.u.t.Z.T._.^.6X7.V 8 7 q a a q 9 E i i a 9 9 ",
"9 9 a 9 t u a 9 0 a i 0 t 5 p J >.z.c./.~.`.).N.5X1X$.0 u t u a t u t i 4 q a u 6 a ",
"4 8 9 8 p u t u 5 a u t t q e u u B T <X2X3X,X5.L V 8 t a E i i 0 9 0 t e 9 9 t q a "
};
