/* XPM */
static char *fb38295b0c174e73bdd35c2c44878b1a[] = {
/* columns rows colors chars-per-pixel */
"42 42 155 2 ",
"   c #060403",
".  c #090604",
"X  c #0E0A06",
"o  c #0C0C0C",
"O  c #100A07",
"+  c #160F0A",
"@  c #0D100F",
"#  c #10100F",
"$  c #1B130D",
"%  c #0B0F10",
"&  c #0E1211",
"*  c #141B1D",
"=  c #1B1B1B",
"-  c #241A11",
";  c #291D13",
":  c #2E2115",
">  c #322317",
",  c #342619",
"<  c #3D2B1C",
"1  c #161E20",
"2  c #192224",
"3  c #212121",
"4  c gray18",
"5  c #3E2C20",
"6  c #212E32",
"7  c #253236",
"8  c #273539",
"9  c #28373B",
"0  c #29383C",
"q  c #31383A",
"w  c #3D3D3D",
"e  c #432E1E",
"r  c #422E20",
"t  c #453121",
"y  c #4A3524",
"u  c #523B26",
"i  c #553C29",
"p  c #583F2A",
"a  c #5C432C",
"s  c #5F4531",
"d  c #61462E",
"f  c #65482E",
"g  c #694A2F",
"h  c #624731",
"j  c #664A31",
"k  c #6C4D33",
"l  c #6F4F38",
"z  c #704F34",
"x  c #724F38",
"c  c #6E5035",
"v  c #6F5138",
"b  c #735236",
"n  c #795537",
"m  c #755439",
"M  c #7A563A",
"N  c #7D593C",
"B  c #33464B",
"V  c #36494F",
"C  c #384C51",
"Z  c #3B5055",
"A  c #3D5359",
"S  c gray27",
"D  c #4D4D4D",
"F  c #414D50",
"G  c #40575E",
"H  c #535353",
"J  c #555B5C",
"K  c #5C5C5C",
"L  c #745742",
"P  c #7E5A40",
"I  c #455E64",
"U  c #4A636B",
"Y  c #4D686F",
"T  c #4E6A71",
"R  c #516D75",
"E  c #626262",
"W  c #6F6F6F",
"Q  c #60767D",
"!  c gray46",
"~  c gray50",
"^  c #825C3D",
"/  c #835C3D",
"(  c #815C3F",
")  c #855E3F",
"_  c #885F3E",
"`  c #86603F",
"'  c #825D41",
"]  c #845E40",
"[  c #885F41",
"{  c #866042",
"}  c #886042",
"|  c #8A6243",
" . c #8B6243",
".. c #8D6242",
"X. c #8D6345",
"o. c #8E6446",
"O. c #8F6448",
"+. c #8F6848",
"@. c #916646",
"#. c #926646",
"$. c #946846",
"%. c #916748",
"&. c #956949",
"*. c #956A4A",
"=. c #5A7982",
"-. c #5D7F88",
";. c #61838D",
":. c #788081",
">. c #658892",
",. c #688D97",
"<. c #6D929D",
"1. c #7B949B",
"2. c #719AA5",
"3. c #759EA9",
"4. c #78A3AF",
"5. c #7BA5B1",
"6. c #808080",
"7. c gray54",
"8. c gray57",
"9. c #9C9C9C",
"0. c #82B0BD",
"q. c #A2A2A2",
"w. c #B8B8B8",
"e. c #86B6C3",
"r. c #8CBECC",
"t. c #8EC0CE",
"y. c #96CAD9",
"u. c #99CFDE",
"i. c #9ED7E7",
"p. c #A0D7E7",
"a. c #A2DBEB",
"s. c #AADEED",
"d. c #B0DCE9",
"f. c #ADE0EE",
"g. c #B3E1EE",
"h. c #BBE5F0",
"j. c #C5C5C5",
"k. c #C8C8C8",
"l. c #D3D3D3",
"z. c #DFDFDF",
"x. c #C4DFE6",
"c. c #DDE9EC",
"v. c #C0E7F2",
"b. c #C5E8F3",
"n. c #CDECF4",
"m. c #D3EEF5",
"M. c #DCF1F7",
"N. c #DEF2F8",
"B. c #E5E5E5",
"V. c #ECECEC",
"C. c #E4F5F9",
"Z. c #E9F7FA",
"A. c #F3F3F3",
"S. c #F5FBFD",
"D. c #FFFFFF",
/* pixels */
"M h N ' { h b m l ] | m | | l m ( ] N M M { N l ] ( b k f d m ( N j m L L h k j j a ",
"] M v j l ( l | N m ) M | X.m a ) | | k ) M N b ( | k N b j M b b c j b v k j h b v ",
") ' l N ] | k ] b | | N ] ' N ' k ] N m | ( ] M k l m l d g b k ( N b b j d k f k m ",
"b m b | | o.( N l X.) ' %.%.%.@.m l m l ) | X.| j ) ] ] j j m l j j N m f u a k ) b ",
"v o.m ] ( { | | j M | @.@.&.&.o.k @.@.@.z | @.l j ) [ N | N N M b j M ] ( m N v b N ",
"m o.{ { %.&.| N | N &.| @.o.( l ( $.o.| N j n b ( ( | ( | M ( ( N N b ( ) M ( ( m M ",
"M o.+.' &.&.' | %.' ] | @.&.&.] M @.) | M _ z k M b N M M l o.] ) M | b v m N N N ( ",
"' M ' v N ' ' ] X.&.M M M N k j a N g M i l M k m N k | X.) ] ] ( M N k b l m j N N ",
"o.l b ] ' | M { @.k l N d j ( l y < e , a i z m k M ) | $.] ) [ ( o.| N N ( b N k k ",
"m a b ] N P N b l l j h l e O w ! :.Q R C 6 + < a ( m [ N | | b N @.@.( ( | ) M b M ",
"| j M k M %.| o.] N h k ; w l.D.D.D.D.N.f.a.t.T X k b ) @.N ] ] | | | N ( ) m M m l ",
"N ( ` ] ' ' @.@.| h M , D D.D.D.D.D.D.D.S.f.a.a.2.X &.m l l M a | @.o.N ) M ( n ( j ",
"( N M ) @.| M ] P k b 3 B.D.D.D.D.D.D.D.D.Z.a.a.a.1 i < < 5 d ] N ' | N M ` m g f m ",
"| m { b ] | | | M s ; 9.D.D.D.D.D.D.D.D.D.D.s.a.4.o 6 U =.R 0 . < l v m n m M d k k ",
"N ( @.{ N ) &.{ k h o A.D.D.D.D.D.D.D.D.D.D.d.U * 5.f.f.a.a.a.t.A X j j j ( ) m f k ",
"h ( M b m ( o.M O.y S D.D.D.D.D.D.D.D.D.D.A.q J c.D.D.D.D.M.f.a.a.R X n j | ( N a k ",
"m d j | N b M &.M - 4 q.l.D.D.D.D.D.D.D.D.W E D.D.D.D.D.D.D.S.f.a.a.Z e N M ) v k j ",
"| b k M v N y $ = K E H = K V.D.D.D.D.D.j.3 V.D.D.D.D.D.D.D.D.Z.a.a.r.. ) k ( M b l ",
"N N j N d X F k.D.D.D.D.B.H D D.D.D.D.D.W 6.D.D.D.D.D.D.D.D.D.D.h.a.a.2 k j ( N | N ",
"b M a t & 5.Z.D.D.D.D.D.D.D.3 l.D.D.D.D.E 9.D.D.D.D.D.D.D.D.D.D.M.a.a.9 l | l M ( | ",
"| l m # e.f.D.D.D.D.D.D.D.D.D w.D.D.D.D.w.8.D.D.D.D.D.D.D.D.D.D.Z.a.a.7   ; d z f g ",
"b o.: -.a.v.D.D.D.D.D.D.D.z.= z.D.D.D.D.D.D.D.D.D.D.D.D.D.D.D.D.Z.a.t.* r.;.o u m k ",
"N M * a.a.b.D.D.D.D.D.D.D.V.q.D.D.D.D.D.D.D.D.D.D.D.D.D.D.D.D.D.m.a.A T a.a.e.o j k ",
"m t I a.a.g.D.D.D.D.D.D.D.D.D.D.D.D.D.D.D.D.D.D.D.D.D.D.D.V.D.S.f.R * i.a.a.a.R < | ",
"v > 3.a.a.a.Z.D.D.D.D.D.D.D.D.D.D.D.D.D.D.D.D.D.D.D.D.D.D.6.K 1.B * t.a.a.a.a.3.- N ",
"d - 5.a.a.a.g.D.D.D.D.D.D.D.D.D.D.D.D.D.D.D.D.D.D.D.D.D.D.S.7.J ~ x.a.a.a.a.a.5.; j ",
"d - <.a.a.a.a.m.D.D.D.D.D.D.D.h.C.D.D.D.D.D.D.D.D.n.D.D.D.D.D.D.D.g.a.a.a.a.a.A y v ",
"d , R a.a.a.a.a.g.Z.D.D.D.C.s.a.g.S.D.D.D.D.D.D.m.a.v.S.D.D.D.D.m.a.a.a.a.a.t.* b b ",
"M d 2 a.a.a.a.a.a.a.s.g.a.a.a.a.a.s.b.Z.Z.Z.m.g.a.a.a.s.b.m.m.h.a.a.a.a.a.a.B < b N ",
"a ( $ >.a.a.a.a.a.a.a.a.a.a.a.a.a.a.a.a.a.a.a.a.a.a.a.a.a.a.a.a.a.a.a.a.a.Y $ ) b | ",
"j f a @ 0.a.a.a.a.a.a.a.a.a.y.r.a.a.a.a.a.a.a.a.=.a.a.a.a.a.a.a.a.a.a.u.A + N d l ( ",
"n m m u . Y t.a.a.a.a.a.p.,.% * r.a.a.a.a.a.y.V . B r.a.a.a.a.a.a.i.<.* : f a a k l ",
"| ( a k a >   9 I R T V & - j u X C R R U 7 . r | t X 9 A T T G 8 # - u f i N d b N ",
"( N j i a m M a y t u t m _ m o.@.j < t i x @.M N | | i d p i u p v { a f b n k m k ",
"m d j b k ( d l m u d l i @.@.| N X.a M N m [ ( | N | u ) ) b M m k j k N m k j m f ",
"m b M m j d d j l ( M ( k n | ) o...b o.o.o...$.N ) b M n ) | ` ) b b M ) N b ( d n ",
"' N N m ( ( j k N ) M ) l l k ( N ..k ( ( o.@.| N b ) | M ( ( ( ( l z b j j j l j N ",
"N M M b { | c f m ( j k f ) N b j j f M ] M ) N ) N M N z ) ` N m k N N n j M j N N ",
"m M k m ( ) N d M b b c b ( ( N N N b ( | N N M ( m N ( m m N b j l M ( M b N k b M ",
"k m b b N N b j b b m k b d M n b k N b ( ] N N N m ( N f d g l N N l j ( M M N j j ",
"j k N j b m M j k N n k c d b m m j k b m N ) ( M ( N f m b m N b m b M a l N m f N ",
"a d j d m b b m d N m b b l c m z f m m M N N N b j d b N ( M n k k k b v j j b k N "
};
