/* XPM */
static char *e35ea88942a34b90a3def344e8ef8bb3[] = {
/* columns rows colors chars-per-pixel */
"42 42 194 2 ",
"   c #0F0E0B",
".  c #120E0B",
"X  c #1E150E",
"o  c #100E11",
"O  c #141313",
"+  c #191614",
"@  c #1C1A16",
"#  c #251309",
"$  c #241C16",
"%  c #2B1F16",
"&  c #261F19",
"*  c #26211A",
"=  c #2B221A",
"-  c #382817",
";  c #31261C",
":  c #35291E",
">  c #3A2B1D",
",  c #211F22",
"<  c #2A2624",
"1  c #332A22",
"2  c #3B2D21",
"3  c #302F2E",
"4  c #3D3024",
"5  c #3D352B",
"6  c #3A3837",
"7  c #3C3A36",
"8  c #47341F",
"9  c #433224",
"0  c #4A3626",
"q  c #4E3925",
"w  c #4B3729",
"e  c #44392D",
"r  c #4D3A2A",
"t  c #543D2B",
"y  c #593F2B",
"u  c #473E34",
"i  c #423E3A",
"p  c #57412D",
"a  c #5C432E",
"s  c #44423D",
"d  c #4C4538",
"f  c #4B443C",
"g  c #534535",
"h  c #5D4330",
"j  c #584834",
"k  c #51463C",
"l  c #5B4C3C",
"z  c #5E503A",
"x  c #61462E",
"c  c #65492F",
"v  c #694B2F",
"b  c #614631",
"n  c #654932",
"m  c #6B4D33",
"M  c #6E4F38",
"N  c #714F36",
"B  c #6F5035",
"V  c #6E513A",
"C  c #735236",
"Z  c #795536",
"A  c #755439",
"S  c #7A563A",
"D  c #7D593C",
"F  c #4C4944",
"G  c #4C4C4B",
"H  c #544C43",
"J  c #5B4E42",
"K  c #5D5542",
"L  c #5A544C",
"P  c #5B5B56",
"I  c #625342",
"U  c #665845",
"Y  c #655B4A",
"T  c #695B4B",
"R  c #7E5B41",
"E  c #625C54",
"W  c #6B5E51",
"Q  c #6C6559",
"!  c #736350",
"~  c #766C5C",
"^  c #73705A",
"/  c #5C5963",
"(  c #676865",
")  c #746D64",
"_  c #786F60",
"`  c #777467",
"'  c #7B7466",
"]  c #676674",
"[  c #6F7373",
"{  c #747775",
"}  c #7D7C73",
"|  c #70757D",
" . c #7C7D7C",
".. c #835C3D",
"X. c #885F3E",
"o. c #87603E",
"O. c #8A613F",
"+. c #845E41",
"@. c #885F41",
"#. c #866142",
"$. c #8C6243",
"%. c #8D6448",
"&. c #916645",
"*. c #966846",
"=. c #986946",
"-. c #926748",
";. c #946949",
":. c #986A4A",
">. c #817B6A",
",. c #837E73",
"<. c #888277",
"1. c #8A867E",
"2. c #8D8A7B",
"3. c #918A7F",
"4. c #797D87",
"5. c #7C8283",
"6. c #7D818A",
"7. c #828683",
"8. c #888B89",
"9. c #928D84",
"0. c #8D918D",
"q. c #93928D",
"w. c #99958B",
"e. c #878E95",
"r. c #919695",
"t. c #9C9992",
"y. c #9C9F9C",
"u. c #A29F9A",
"i. c #9BA09C",
"p. c #A3A297",
"a. c #969CB1",
"s. c #9CA4A3",
"d. c #9DA7AA",
"f. c #99A4B7",
"g. c #A4A7A5",
"h. c #A6A9A6",
"j. c #AAACA5",
"k. c #A4ABAB",
"l. c #AAADAB",
"z. c #ADB0AA",
"x. c #B2B3AE",
"c. c #A3ACB1",
"v. c #A7B1B3",
"b. c #ABB3B2",
"n. c #AFB7BE",
"m. c #B3B5B2",
"M. c #B5B9B6",
"N. c #B8BDB7",
"B. c #B4BCBB",
"V. c #BCC1BE",
"C. c #C2C3BD",
"Z. c #ABB6C7",
"A. c #B3BEC3",
"S. c #B7BFC4",
"D. c #BCC3C4",
"F. c #BDC7CC",
"G. c #BEC9CC",
"H. c #BCCAD2",
"J. c #B5C6D8",
"K. c #BBCFE4",
"L. c #C2C7C2",
"P. c #C3C9C6",
"I. c #C4CCCC",
"U. c #C9CECD",
"Y. c #CBD0CE",
"T. c #C5CFD1",
"R. c #C9CFD2",
"E. c #C4D1D5",
"W. c #CBD4D4",
"Q. c #C5D2DA",
"!. c #CDD6D9",
"~. c #CED9DB",
"^. c #D0D7D5",
"/. c #D3D9D6",
"(. c #D3DCDD",
"). c #C4D4E3",
"_. c #CEDCE5",
"`. c #D3DEE1",
"'. c #CEE0EE",
"]. c #D6E1E4",
"[. c #DBE4E4",
"{. c #D3E3EC",
"}. c #DBE6E9",
"|. c #DEE9EB",
" X c #D6E6F2",
".X c #D5E8F5",
"XX c #DAE9F4",
"oX c #E3ECED",
"OX c #E4EEF2",
"+X c #E6F2F6",
"@X c #E9F3F5",
"#X c #ECF6F9",
"$X c #EDF8FB",
"%X c #F2FBFE",
/* pixels */
", < 1 r b t n V m +.#.A $.$.m A ..+.D A S #.D M +.+.C m c a A ..D n A V V r 0 = + o ",
"O < 6 & > t p A A C D A #.$.A a +.$.$.m X.S D C ..$.m D C n D C B n a b t 2 = 3 4./ ",
"  , f.] 6 : 2 t t N A A D D S ..n +.D C +.D +.S n m A M x c M n A n p 0 : & G 6.a.Z.",
"= + | J.J.c.G = ; r t a m A A S n a n b A S S S a A S S a p b t r 9 4 = 6 e.Z.).K.| ",
"9 2 < e.J..X.XH.e.P 1 : 9 w t t 9 h h h 0 a h 0 0 a b a b t 0 9 ; $ G 5.A.).{.'.5.> ",
"a t 1 7 7.A._.XXXX X_.s.[ G i * = 1 5 ; = = 1 = ; > 2 2 2 = 1 s [ d.G.Q._.{.{.d.: r ",
"M V h 1 4 E r.S.~._.Q.E.H.S.n.b.8.k t.y.s.T.|.D.} t.[ P { d.A.b.G._.{.{.{.E.5.1 t n ",
"R M M r 9 ; 5 Q 0.s.y.d.k.c.r.v.l.,.C.U.I.`.].D.k u.D.H._.{._.I.B.E.Q.H.s.F : 9 n A ",
"%.m M A n p 1 = 5 H P { 7.r.{  .E 9.m.!.!.(.R.E.) E p.M._.XX XE.B.v.0.( 1 9 w n x n ",
"A a A ..A m h 0 : = & 1 f L F e g ,.I.(.].!.V.I.W.1.,.t.j.G.F.s.} f 1 2 r n C C B A ",
"$.n S m A #.D S n t 9 = $ @ $ J H p.P.!.P.B.B.8.}.oX(.z.<.~ G 1 ; 9 t a M S C Z A M ",
"S ..o.+.+.+.$.$...n b t 2 $ . 1 >.z.m.W.c.r.W.!.}.oXoXoXE * $ 2 t M A C D S ..S ..c ",
"..D D X.&.#.D +.D A D D b 2 + d 2.V.P.(.~.(.!.(.`.OX}.(.7.+ 9 n A R %.S S O.A v c A ",
"$.C +.C +.$.$.$.%.M +.S C t $ Q N.l.~.`.~.(.W.~.W.oX(.P.[.< t A D C +.D A A S x n m ",
"D ..&.#.D X.;.#.D M X.#.V r : _ L.z.(.].].`.G.!.!.[.oXm.oX .t A ..D A D n ..X.A c m ",
"b ..S A A ..%.;.;.A ;.$.V w u ' Y.z.`.}.|.`.B.E.`.].oX(.oXl.0 n A A a Z S $.X.D a m ",
"A x n $.$.S X.;.#.n &.+.M 9 u 2.C.U.!.}.}.(.B.T.`.}.].!.oXq.0 a D C A ..$...X.m n n ",
"$.C m #.D ..%.:.%.t &.+.N 9 $ Q p.W.U.`.}.!.S.W.(.}.(./.m.d 4 C ..$.$.&.X.A D Z A M ",
"D D C ..D +.%.%.$.S b $.A t $ % ,.M.U.!.].I.D.~.}.(.^.(.p.f 0 A X.O.&.&...A ..D %.D ",
"C S n n S +.+.-.-.&.A t t 9 $ > j 2.x.j.~.W.`.}.OX(.(.[.^.L a m ....&.&.&.$.$.X...$.",
"$.%.+.A %.;.X.&.;.-.h D +.n 2 9 r z >.2.M.I.`.@X$XoX}./.(.k b D X.%.+.&.*.-.S S v v ",
"#.%.+.+.$.-.%.$.+.M n %.#.A t : > q U ~ i.W.}.@X%X@XoXU.s w n S &.#.D ..M S Z S ..A ",
"%.%.$.%.%.&.%.+.V b *.%.#.R b ; ; p r T 1.P.oX@XoX@X@Xs.= a S &.;.:.D D ;.;.$.D ..+.",
"%.D C +.+.S a h 2 ..%.#.#.#.n 9 & l l H ) B.OX}.R.#X#X0.2 n A =.*.-.$...$.&.&.$.D $.",
"A #.+.n n m D ....a +.#.+.+.S 2 * I I W ) m.#X%X%X#X$X5.2 r A D A +.+.$.&.&.X.&.D +.",
"x A #.D #.$.A V D b a D A b h r & l T U W z.#X#X#X%X$X .0 C @.&...&.D =.=.$.:.+.D C ",
"n x n A $.D B A ..D A a b A n a ; g T I J l.#XoX%X%X#Xg.0 A $.O.&.:.$.:.*.=.X.X.X.A ",
"n M M A +.A A S C +.D ..$.%.A h 2 8 T U l j.#X(.%X%X@XN.t M ..$.$.*.:.X.*.&.D $...+.",
"X...D ..$.%.%...+.%.S $.$.$.+.a > - I T l l.@XU.%X%XOXH a C $.&.D $.X.A X.$.$.X.D #.",
"S ..O.X.$.$...$.&.;.+.X.#.$.$.C 9 = g T l M.+Xu.oX#Xg.2 a A ..X.D X.*.D ..$.X.o.S $.",
"n C C Z O.D ..&.#.;.S $.:.%.X.A b > 2 ! J b.+X<.x.oX( 9 n +.A $...Z X.A ......C A ..",
"Z D D n m D $.$.$.;.$.S +.C ..D A w = ~ ^ q.F.E w.r.u y p ..&.$.$.v a ....m c n m M ",
"$...B A n $.$.$.#.;.$.m ..X.$.&.D a $ ' ` <.h.1 ' s 9 x C A m n n c A C m c X.x C D ",
"..D n a c X.....X.$.$.n S &.$.;.+.b = w.^ K K # T F 0 t X.$.$.X.C A #.m C C Z m A n ",
"A x n C n X...D D c n D n &.&.%...n ; x.` L Y X Y E t t $.$.O...X.S m m S A m n A x ",
"A C S A n x x n M ..Z ..M Z $...D b : x.7.P Q + ~ ` 9 n C X.$.O.X.C C S X.D C ..x S ",
"D D D A ....n n D X.S X.M M m D C n : 3.[ { Y @ 1.E t A A ........M N C n n n M n S ",
"D S D C #.$.B n A ..n m c X.D B a w ; ' i.h.L 7 j.) w n n ..#...A n D D Z n S n S S ",
"A D m A ..X.S x Z C C m C ....S C b 9 } !.k.7 g.I.9.t B C A S C n m S ..S C S m C S ",
"m A C C D S C n C C A m C x S Z m a t r ` i.f D.M.l a N c x v M D D M n ..S S D n n ",
"n n D n C A D n m D Z m C x C A C a p t 9 9 9 r 0 a n a A C A D C A C S a M D A c ..",
"a x n x A A A A x D A C C M B A M x m b x a a a a a y M D ..S S m n m C B n n A M D "
};
